<?xml version="1.0" encoding="utf-8"?>
<!DOCTYPE svg PUBLIC "-//W3C//DTD SVG 20010904//EN" "http://www.w3.org/TR/2001/REC-SVG-20010904/DTD/svg10.dtd">
<svg version="1.0" xmlns="http://www.w3.org/2000/svg" width="1683px" height="682px" viewBox="0 0 1683 682" preserveAspectRatio="xMidYMid meet">
 <g fill="#ffffff">
  <path d="M0 341 l0 -341 841.5 0 841.5 0 0 341 0 341 -841.5 0 -841.5 0 0 -341z m443 298 c1.1 -0.7 0.4 -1 -2.7 -1 -2.4 0 -4.3 0.5 -4.3 1 0 1.3 5 1.3 7 0z m992.3 0.3 c-1.3 -0.2 -3.5 -0.2 -5 0 -1.6 0.2 -0.5 0.4 2.2 0.4 2.8 0 4 -0.2 2.8 -0.4z m-16 -5.3 c-0.6 -2.2 -2.1 -3.5 -3 -2.6 -0.5 0.5 2.4 4.6 3.3 4.6 0.1 0 0 -0.9 -0.3 -2z m33.3 -6.4 c1.4 -3 4.7 -15.5 7.5 -27.7 2.7 -12.2 5.2 -22.6 5.5 -23.1 0.3 -0.4 0.1 -0.8 -0.3 -0.8 -0.5 0 -1.3 1.5 -1.8 3.3 -0.7 2 -1.7 3.3 -3 3.5 -1.9 0.3 -2 0.9 -1.7 8 0.4 8.7 -2 17 -6.3 21.6 -1.3 1.4 -2 2.6 -1.5 2.6 1.5 0 1.1 9.9 -0.4 14.3 -2 5.5 -0.9 4.5 2 -1.7z m-992.8 -9.8 l2.3 -3.8 -3.6 0 c-2 0 -3.7 -0.5 -3.9 -1.2 -0.2 -0.7 -1.6 -9.3 -3.2 -19 -1.8 -11.6 -3.1 -17.8 -3.9 -17.8 -0.9 0 -0.9 1.7 0.1 7.3 0.7 3.9 2.5 13.5 3.9 21.1 1.4 7.7 2.5 15.8 2.6 18 l0 4.1 1.7 -2.4 c0.9 -1.3 2.7 -4.2 4 -6.3z m164 2.5 c-1 -0.2 -2.8 -0.2 -4 0 -1.3 0.2 -0.5 0.4 1.7 0.4 2.2 0.1 3.2 -0.1 2.3 -0.4z m353.5 0 c-1.3 -0.2 -3.3 -0.2 -4.5 0 -1.3 0.2 -0.3 0.4 2.2 0.4 2.5 0 3.5 -0.2 2.3 -0.4z m145 0 c-1.3 -0.2 -3.3 -0.2 -4.5 0 -1.3 0.2 -0.3 0.4 2.2 0.4 2.5 0 3.5 -0.2 2.3 -0.4z m58.5 0 c-1 -0.2 -2.8 -0.2 -4 0 -1.3 0.2 -0.5 0.4 1.7 0.4 2.2 0.1 3.2 -0.1 2.3 -0.4z m199 0 c-1 -0.2 -2.8 -0.2 -4 0 -1.3 0.2 -0.5 0.4 1.7 0.4 2.2 0.1 3.2 -0.1 2.3 -0.4z m-820.5 -1.7 c3.2 -0.7 6.1 -1.7 6.5 -2.1 0.4 -0.5 -0.2 -0.4 -1.3 0 -1.1 0.5 -9.4 1 -18.4 1.3 l-16.4 0.4 0.6 -5.3 c0.4 -3 2.4 -12.6 4.6 -21.4 2.1 -8.8 4.7 -19.7 5.7 -24.3 l1.7 -8.4 16.3 0.4 c11.1 0.2 15.7 0 14.6 -0.7 -0.9 -0.5 -8.9 -1 -17.6 -1 l-16 0 -0.7 3 c-0.3 1.7 -2.1 9.5 -3.9 17.5 -1.8 8 -4.8 20.7 -6.5 28.3 l-3.2 13.7 14.1 0 c8.3 0 16.5 -0.6 19.9 -1.4z m195.7 -2.8 c0 -2.4 1.1 -8.8 2.4 -14.3 3.8 -15.9 3.9 -16.9 1.9 -19.4 -1.8 -2.2 -1.8 -2.1 -1.8 4.2 0 3.5 -0.5 7 -1.1 7.8 -0.6 0.8 -1.4 3.5 -1.6 6.2 -0.3 2.6 -1.7 7 -3 9.7 -1.8 3.6 -2.1 5 -1.1 5 0.7 0 1.3 0.8 1.3 1.8 0 1 0.3 2.2 0.7 2.5 1.5 1.6 2.3 0.4 2.3 -3.5z m22.4 2.5 c0.3 -1 1.7 -7 3.2 -13.3 1.5 -6.3 3.8 -13.6 5.1 -16.2 1.4 -2.8 1.9 -4.8 1.2 -4.8 -0.7 0 -1 -1.5 -0.7 -4 0.5 -5.1 -0.8 -5.2 -1.6 -0.2 -0.7 3.8 -8.2 35.4 -9.2 38.5 -0.3 0.9 -0.1 1.7 0.5 1.7 0.5 0 1.2 -0.8 1.5 -1.7z m38.6 -11.9 c1.8 -7.5 4.3 -15.6 5.5 -18 1.2 -2.4 1.8 -4.4 1.4 -4.4 -0.5 0 -0.9 -1.9 -0.9 -4.2 0 -2.3 -0.2 -3.9 -0.4 -3.7 -0.2 0.2 -2.5 9.4 -5 20.4 -2.6 11 -4.9 20.8 -5.2 21.8 -0.3 0.9 -0.1 1.7 0.4 1.7 0.5 0 2.4 -6.1 4.2 -13.6z m97.2 -7.5 c8.7 -37.6 9.5 -42 8.4 -41.6 -0.6 0.2 -4.1 13.1 -7.7 28.6 -8.4 35.7 -8.2 34.4 -6.6 33.8 0.7 -0.2 3.2 -9.1 5.9 -20.8z m24 -0.4 c2.7 -11.6 5.5 -23.9 6.3 -27.5 0.8 -3.6 1.9 -8.2 2.4 -10.2 0.6 -2.8 0.6 -3.8 -0.3 -3.8 -0.7 0 -1.8 2.6 -2.5 5.8 -0.7 3.1 -2.1 9.3 -3.1 13.7 -1 4.4 -3.6 15.9 -5.9 25.5 -4.7 20.1 -4.4 18.3 -3 17.8 0.7 -0.2 3.4 -9.8 6.1 -21.3z m131.2 19.8 c0.5 -1.9 2.6 -10.7 9.7 -41 l4.3 -18.3 12.2 0 c7.1 0 12.5 -0.4 12.9 -1 0.4 -0.7 -8.5 -1 -25.9 -1 -16.6 0 -26.7 0.4 -27.1 1 -0.4 0.6 3.7 1 11.4 1 l12.1 0 0 2.8 c0 2.2 -10.8 50.9 -12.6 56.5 -0.3 1.1 0 1.7 1 1.7 0.8 0 1.7 -0.8 2 -1.7z m148.2 -1 c0.3 -1.6 1.2 -5 1.9 -7.8 0.7 -2.7 1.9 -7.7 2.5 -11 0.7 -3.3 2.3 -8.1 3.6 -10.7 1.4 -2.7 2 -4.8 1.4 -4.8 -0.5 0 -1 -1.7 -1.1 -3.7 0 -3.1 -0.2 -3.4 -0.9 -1.8 -0.9 1.8 -10 40.2 -10 41.9 0 1.9 2.1 0.2 2.6 -2.1z m38.1 -11.9 c1.8 -7.6 3.6 -16.1 3.9 -18.9 0.6 -4.7 0.4 -5.2 -2.7 -8 -1.9 -1.6 -2.6 -2.1 -1.6 -0.9 2.6 3.1 2.2 11.6 -1.2 25.2 -4.4 18 -4.3 17.4 -2.9 17 0.7 -0.3 2.7 -6.7 4.5 -14.4z m81.2 10.9 c2.4 -9.8 13.1 -57.2 13.1 -58.2 0 -0.6 -0.4 -1.1 -0.8 -1.1 -0.5 0 -3 9.3 -5.6 20.8 -2.7 11.4 -5.9 25.1 -7.2 30.4 -2.7 10.8 -2.8 11.8 -1.4 11.8 0.5 0 1.3 -1.7 1.9 -3.7z m145.6 -7.5 c1.4 -6.2 3.7 -16 5.1 -21.7 2.3 -9.4 2.5 -12.5 0.7 -10.8 -0.6 0.6 -10.3 41 -10.3 42.9 0 0.4 0.4 0.8 0.9 0.8 0.5 0 2.1 -5.1 3.6 -11.2z m-761.3 8 c-0.7 -0.7 -1.2 -3.8 -1.2 -7.1 0 -5.2 -0.2 -5.8 -1.5 -4.7 -2.1 1.8 -1.9 6.7 0.6 10.1 1.1 1.6 2.3 2.9 2.7 2.9 0.3 0 0.1 -0.5 -0.6 -1.2z m-112.8 -4.3 c-1.7 -4.3 -1.9 -14.1 -0.1 -15.2 1 -0.7 2 -10.3 1 -10.3 -0.1 0 -1.2 1.9 -2.4 4.2 -3 5.9 -3.6 14.5 -1.4 18.9 3.2 6.2 5.3 8 2.9 2.4z m58.2 0 c-1 -3.1 -3.6 -5 -3.6 -2.6 0 0.8 3.8 6.1 4.4 6.1 0.2 0 -0.2 -1.6 -0.8 -3.5z m500.4 1.6 c-1.7 -3.3 -1.1 -18 1 -24.1 1.8 -5.3 1.8 -5.4 0 -3.2 -1 1.2 -2.8 5.2 -4 8.8 -2.5 7.3 -2.2 11.7 1.2 17.2 2.1 3.4 3.5 4.5 1.8 1.3z m257.5 -0.5 c-2.3 -3.5 -2.9 -15 -1.2 -21.6 1.5 -5.3 1.5 -5.3 -0.3 -3 -5.5 7.3 -5.1 18.5 0.8 25.3 2.2 2.4 2.5 2.1 0.7 -0.7z m83.5 0.5 c-1.7 -3.3 -1.1 -18 1 -24.1 1.8 -5.3 1.8 -5.4 0 -3.2 -1 1.2 -2.8 5.2 -4 8.8 -2.5 7.3 -2.2 11.7 1.2 17.2 2.1 3.4 3.5 4.5 1.8 1.3z m-655 -1 c-1.5 -2.9 -1.2 -17.2 0.5 -22.1 1.3 -3.8 1.3 -4.1 0 -3 -0.8 0.7 -2.5 4.3 -3.6 8.1 -2.2 7.2 -1.8 11.1 1.9 16.7 1.8 2.7 2.7 2.9 1.2 0.3z m254.2 0.6 c-0.6 -0.7 -1.4 -4.4 -1.8 -8.1 -0.6 -5.6 -0.4 -7.1 0.8 -8 1 -0.7 1.7 -3.2 1.9 -6.4 0.3 -4.4 0.2 -5 -0.8 -3.5 -2 2.6 -5.3 12.1 -5.3 14.9 0 3.8 4 12.4 5.7 12.4 0.3 0 0.1 -0.6 -0.5 -1.3z m453.8 -0.6 c-1.8 -3.5 -1.2 -19.1 1 -23.8 1 -2.4 1.7 -4.3 1.5 -4.3 -1 0 -5.4 8.9 -6.5 12.9 -1.4 5.2 -0.8 9.3 2 13.9 2.1 3.4 3.8 4.5 2 1.3z m-860 -4.7 c0 -1.3 -1.5 -3.5 -3.5 -5.3 -4.2 -3.7 -6 -4.2 -2.1 -0.6 2.1 1.9 2.6 3.3 2.6 7.2 0.1 4.4 0.2 4.7 1.5 2.9 0.8 -1.1 1.5 -3 1.5 -4.2z m258.9 2 c-1.3 -3.5 -0.4 -14.6 1.7 -20.7 1.2 -3.7 1.2 -4 -0.1 -2.3 -2.2 2.8 -5.5 12.2 -5.5 15.4 0 2.9 3.7 11.8 4.5 11 0.3 -0.3 0.1 -1.8 -0.6 -3.4z m319 -1.4 c-1.1 -4.6 -0.4 -13.4 1.2 -17.8 1.7 -4.4 0 -3.6 -2 0.9 -3.3 7.4 -3.6 12 -1.2 17.4 2.6 5.8 3.4 5.6 2 -0.5z m83.9 1.9 c-1.4 -4 -0.5 -16.3 1.6 -21.5 l1.6 -3.9 -2 2.4 c-4.8 5.6 -6.1 18.2 -2.6 23.6 2.2 3.4 2.7 3.1 1.4 -0.6z m39.2 -6.2 c3.6 -7.3 4 -13.9 1 -19.7 -1.1 -2.1 -2.4 -4.1 -2.9 -4.4 -0.5 -0.4 -0.3 0.8 0.6 2.5 2.5 5.1 1.4 19.2 -2 25.3 -1.5 2.7 -2 4.3 -1.2 3.6 0.8 -0.6 2.8 -3.9 4.5 -7.3z m-818 -3.1 c6.9 -10.5 8.2 -22.5 3.5 -31.5 -1.4 -2.8 -8.9 -10.1 -10.3 -10.1 -0.4 0 0.6 1 2.1 2.1 5.1 3.9 6.7 8.6 6.7 20.1 -0.1 11.7 -2.1 18.2 -8.1 26 -3 3.9 -3 4.1 -0.5 1.8 1.5 -1.4 4.5 -5.2 6.6 -8.4z m415 3.7 c4.4 -8.8 4.3 -16.7 -0.1 -22.3 -2 -2.4 -2 -2.4 -0.9 -0.1 0.7 1.4 1.1 5.8 0.8 11.5 -0.2 7.1 -0.8 10 -2.6 13.5 -1.3 2.5 -1.7 4 -1 3.3 0.8 -0.6 2.5 -3.3 3.8 -5.9z m319.6 -0.8 c3.4 -7 3.6 -14.9 0.4 -19.9 -2.3 -3.9 -3.8 -5 -1.9 -1.5 0.6 1.3 1 5.7 0.7 11.3 -0.2 7.1 -0.8 10 -2.6 13.5 -1.6 3 -1.8 4.1 -0.8 3.2 0.9 -0.7 2.7 -3.7 4.2 -6.6z m279.4 2.9 c1.6 -2.6 3.5 -7.1 4.1 -10 1 -4.6 1 -6 -0.5 -9.8 -0.9 -2.4 -2.5 -5 -3.4 -5.8 -1.5 -1.2 -1.6 -1.1 -0.3 0.5 1 1.2 1.4 4.6 1.5 10.6 0 7.4 -0.3 9.5 -2.5 13.9 -1.4 2.9 -2.4 5.2 -2.2 5.2 0.2 0 1.7 -2.1 3.3 -4.6z m-706.6 -2.3 c3.7 -7.1 4.2 -12.9 1.8 -18.5 -2.5 -5.6 -3.4 -6 -2 -0.8 1.4 5 0.3 15.2 -2.1 20.8 -2.6 5.8 -0.8 4.7 2.3 -1.5z m-202.4 -7.1 c-2.6 -1.5 -12.6 -5.2 -11.7 -4.4 1 1 10.7 5.2 12.2 5.3 0.6 0 0.3 -0.4 -0.5 -0.9z m-40.7 -6.4 c-0.2 -7.5 -2 -7.9 -2.5 -0.7 -0.2 5.1 0 6.1 1.2 5.8 1.1 -0.2 1.5 -1.5 1.3 -5.1z m498.7 1.2 c-0.1 -2.4 -0.7 -5.4 -1.4 -6.8 -1.3 -2.3 -1.4 -2 -1.8 4.3 -0.3 5.8 -0.1 6.7 1.5 6.7 1.3 0 1.7 -0.9 1.7 -4.2z m-472.3 -1.6 c-1 -1.1 -1.7 -3.6 -1.7 -5.8 -0.1 -3.6 -0.2 -3.8 -1.5 -2 -0.8 1.1 -1.5 2.3 -1.5 2.7 0 0.9 5 6.9 5.7 6.9 0.4 0 -0.1 -0.8 -1 -1.8z m528.4 -8.1 c-0.6 -1 -1.8 -2.4 -2.7 -3.2 -1.6 -1.3 -1.6 -1.2 -0.6 0.6 0.6 1.1 1.3 2.8 1.6 3.8 0.3 1 1 1.5 1.6 1.2 0.6 -0.4 0.7 -1.2 0.1 -2.4z m341.9 1.9 c0 -0.5 -1.2 -2.2 -2.7 -3.8 -1.6 -1.5 -2.2 -2.1 -1.5 -1.2 0.6 0.9 1.2 2.3 1.2 3.2 0 0.8 0.3 1.8 0.7 2.1 1 1 2.3 0.8 2.3 -0.3z m-841 -0.8 c0 -0.5 -0.7 -1.7 -1.6 -2.8 -1.4 -1.7 -1.5 -1.7 -1 -0.1 0.3 1 0.6 2.3 0.6 2.8 0 0.5 0.5 0.9 1 0.9 0.6 0 1 -0.4 1 -0.8z m104 -8.2 c0 -1.2 -1.7 -1.2 -4.5 0 -1.7 0.7 -1.5 0.9 1.3 0.9 1.7 0.1 3.2 -0.3 3.2 -0.9z m36 0 c0 -1.2 -1.7 -1.2 -4.5 0 -1.7 0.7 -1.5 0.9 1.3 0.9 1.7 0.1 3.2 -0.3 3.2 -0.9z m-96.2 -0.7 c-1.5 -0.2 -4.2 -0.2 -6 0 -1.8 0.2 -0.6 0.4 2.7 0.4 3.3 0 4.8 -0.2 3.3 -0.4z m443.5 0 c-1.3 -0.2 -3.5 -0.2 -5 0 -1.6 0.2 -0.5 0.4 2.2 0.4 2.8 0 4 -0.2 2.8 -0.4z m59.5 0 c-1 -0.2 -2.6 -0.2 -3.5 0 -1 0.3 -0.2 0.5 1.7 0.5 1.9 0 2.7 -0.2 1.8 -0.5z m195 0 c-1 -0.2 -2.8 -0.2 -4 0 -1.3 0.2 -0.5 0.4 1.7 0.4 2.2 0.1 3.2 -0.1 2.3 -0.4z m86.5 0 c-1.3 -0.2 -3.5 -0.2 -5 0 -1.6 0.2 -0.5 0.4 2.2 0.4 2.8 0 4 -0.2 2.8 -0.4z m-38.3 -16.8 c0 -0.8 -0.4 -1.5 -1 -1.5 -0.5 0 -1 0.7 -1 1.5 0 0.8 0.5 1.5 1 1.5 0.6 0 1 -0.7 1 -1.5z m-177.2 -35.2 c-1 -0.2 -2.8 -0.2 -4 0 -1.3 0.2 -0.5 0.4 1.7 0.4 2.2 0.1 3.2 -0.1 2.3 -0.4z m-16.3 -6.2 c-0.3 -1.2 -1.3 -2.1 -2.1 -2.1 -0.9 0 -1.2 0.5 -0.8 1.3 2.3 4 4.1 4.6 2.9 0.8z m34.2 -7 c0.8 -1.9 2.3 -7 3.3 -11.5 3.9 -17.2 8.1 -35.2 8.6 -36.8 0.3 -1 0.1 -1.8 -0.4 -1.8 -0.5 0 -1.3 1.6 -1.6 3.5 -0.5 2.7 -1.2 3.5 -2.9 3.5 -2.1 0 -2.2 0.4 -1.9 6.1 0.6 9.1 -0.5 14 -4.3 20.3 -1.8 3.1 -2.9 5.6 -2.3 5.6 1.4 0 0.3 9.9 -1.7 14.8 -1.4 3.4 -1.4 3.5 0.1 1.7 0.9 -1.1 2.3 -3.5 3.1 -5.4z m-1259.7 -6.1 c1.7 -0.5 -0.3 -0.8 -6 -0.8 -5.7 0 -7.7 0.3 -6 0.8 1.4 0.4 4.1 0.8 6 0.8 1.9 0 4.6 -0.4 6 -0.8z m60.8 0.3 c-1 -0.2 -2.6 -0.2 -3.5 0 -1 0.3 -0.2 0.5 1.7 0.5 1.9 0 2.7 -0.2 1.8 -0.5z m1017 0 c-1 -0.2 -2.6 -0.2 -3.5 0 -1 0.3 -0.2 0.5 1.7 0.5 1.9 0 2.7 -0.2 1.8 -0.5z m60 0 c-1 -0.2 -2.8 -0.2 -4 0 -1.3 0.2 -0.5 0.4 1.7 0.4 2.2 0.1 3.2 -0.1 2.3 -0.4z m41.7 -1.3 c-3.9 -0.5 -4 -0.6 -4.3 -5 -0.2 -2.5 1.1 -10.4 2.9 -18 1.7 -7.4 3.3 -14.8 3.6 -16.3 0.3 -1.6 1.1 -3.1 1.7 -3.3 0.7 -0.3 1.1 -1.7 0.9 -3.2 -0.3 -1.5 0 -4.6 0.5 -6.9 0.7 -3.2 0.7 -4 -0.3 -3.7 -0.7 0.3 -1.8 3.2 -2.5 6.6 -0.7 3.3 -1.8 6.2 -2.5 6.4 -0.6 0.3 -1 1.7 -0.8 3.2 0.2 1.5 -1.4 10.3 -3.6 19.5 -2.2 9.3 -3.8 17.4 -3.5 18.1 0.9 2.4 6.8 4.6 9.9 3.7 1.4 -0.4 0.9 -0.7 -2 -1.1z m263.3 1.3 c-1 -0.2 -2.6 -0.2 -3.5 0 -1 0.3 -0.2 0.5 1.7 0.5 1.9 0 2.7 -0.2 1.8 -0.5z m-1338.2 -14.4 c1.7 -7.4 4 -15.5 5 -17.9 1.8 -4.4 2.1 -12 0.5 -12 -0.9 0 -1.9 4 -7.1 27 -1.7 7.4 -3.3 14.3 -3.7 15.4 -0.3 1.2 -0.1 1.7 0.8 1.4 0.8 -0.3 2.6 -6 4.5 -13.9z m31.7 13.3 c0.3 -0.4 2.4 -8.4 4.6 -17.9 4.2 -17.5 4.3 -20.2 1 -23 -1.2 -0.9 -1.3 0 -1.1 5.5 0.3 6.3 -0.4 10.2 -5.8 33 -0.7 2.9 0.1 4.4 1.3 2.4z m32.2 -0.1 l-4 -0.6 0.2 -7 c0.2 -7 6.3 -34.2 7.9 -35.4 0.5 -0.3 0.9 -2.4 0.9 -4.6 0 -2.2 0.4 -5.3 0.8 -6.9 0.7 -2.5 0.6 -2.8 -0.6 -1.8 -0.7 0.7 -1.9 3.7 -2.6 6.8 -0.7 3 -1.8 5.7 -2.5 6 -0.7 0.3 -1 2 -0.8 4.2 0.1 2 -1.5 11 -3.6 20 l-3.9 16.3 2.5 1.9 c1.5 1.3 3.8 1.9 6.1 1.9 l3.6 -0.2 -4 -0.6z m25.5 -13.6 c1.7 -7.1 3.9 -14.6 4.9 -16.5 1.3 -2.6 1.6 -4.7 1.1 -8.5 -0.7 -6.2 -0.7 -6.4 -6.4 18.7 -5 21.3 -5 21.7 -3.7 20.3 0.6 -0.6 2.4 -6.8 4.1 -14z m125 14.1 c0 -0.2 2.7 -12 6 -26.4 3.3 -14.3 6 -26.9 6 -28.1 0 -1.7 0.6 -2.1 3.5 -2.1 l3.6 0 -1.6 -2.9 c-3.3 -6.5 -5.6 -4.9 -8 5.9 -0.9 4.1 -2.8 12.2 -4.1 18 -1.3 5.8 -3.6 15.5 -4.9 21.5 -1.4 6.1 -2.8 11.8 -3.1 12.8 -0.3 1.1 0 1.7 1 1.7 0.9 0 1.6 -0.2 1.6 -0.4z m51.5 -6.8 c1.9 -8.7 7.9 -34.2 10.6 -45.2 1 -4.4 1.9 -8.9 1.9 -10 0 -1.8 -0.2 -1.8 -1.4 -0.6 -1.3 1.4 -2.6 6.6 -9.7 38.5 -1.6 7.2 -3.1 14 -3.4 15.3 -0.4 1.7 -1.3 2.2 -3.5 2.2 -1.8 0 -3 0.5 -3 1.3 0 2.2 3 5.7 5 5.7 1.5 0 2.2 -1.4 3.5 -7.2z m61.8 0 c0.3 -4 1.5 -10.9 2.7 -15.3 2.7 -10.5 2.8 -14.1 0.4 -16.5 -1.9 -1.9 -1.9 -1.9 -1.6 4.2 0.2 3.3 -0.1 7 -0.6 8.2 -0.6 1.1 -1.3 4.2 -1.6 6.9 -0.3 2.6 -1.4 6.5 -2.5 8.8 -1.8 3.6 -1.8 4.3 -0.5 7.4 0.8 1.9 1.8 3.5 2.3 3.5 0.4 0 1.1 -3.3 1.4 -7.2z m80.6 -15.3 c2.7 -11.6 4.7 -21.2 4.5 -21.4 -1.3 -1.3 -2.8 3.3 -6.9 21.3 -4.7 20.7 -5.2 23.7 -3.5 22 0.5 -0.5 3.2 -10.4 5.9 -21.9z m82 8.5 c1.8 -7.7 4.3 -16 5.6 -18.5 1.2 -2.5 1.8 -4.5 1.4 -4.5 -0.5 0 -0.9 -1.7 -0.9 -3.7 0 -5.5 -1.5 -3 -3.5 5.7 -0.9 4.1 -3 13.3 -4.6 20.3 -3.2 14.1 -3.3 14.7 -2.1 14.7 0.4 0 2.3 -6.3 4.1 -14z m32.6 11.8 c0.3 -1.3 2.1 -9 4 -17.1 1.9 -8.2 3.5 -15.7 3.5 -16.8 0 -1 -1.2 -3.1 -2.7 -4.7 -1.6 -1.5 -2.2 -2.1 -1.5 -1.2 2 2.7 1.4 10 -2.3 25.4 -1.9 8.1 -3.5 15.1 -3.5 15.6 0 2 2 0.9 2.5 -1.2z m61.8 -5 c0.3 -4 1.7 -11.6 3.1 -16.8 3.1 -11.4 3.1 -11.2 0.9 -13.9 -1.8 -2.1 -1.8 -2 -1.8 4.2 0 3.5 -0.5 7.1 -1.1 7.8 -0.6 0.8 -1.4 3.5 -1.6 6.2 -0.3 2.6 -1.7 7 -3 9.7 -1.8 3.6 -2.1 5 -1.1 5 0.7 0 1.3 0.8 1.3 1.8 0 1.9 0.8 3.2 2 3.2 0.4 0 1 -3.3 1.3 -7.2z m21.2 6.3 c1 -1.8 14.6 -61.3 14.1 -61.9 -0.3 -0.3 -0.9 -0.2 -1.2 0.1 -0.4 0.4 -3.9 14.6 -7.9 31.7 -6.3 27 -7.4 33.9 -5 30.1z m92.3 -9.6 c1.2 -4.9 4.2 -18 6.7 -29 2.5 -11 4.8 -20.8 5.1 -21.9 0.4 -1.2 0.2 -1.7 -0.6 -1.4 -1.1 0.3 -2.5 5.2 -6.5 22.6 -0.3 1.2 -1.3 2.2 -2.3 2.2 -1.5 0 -1.7 1.2 -1.7 9.8 0 9 -0.3 10.4 -3.1 16 -1.7 3.4 -2.7 6.2 -2.2 6.2 0.4 0 0.8 1.4 0.8 3.2 0 5.1 1.5 2.1 3.8 -7.7z m116.2 6.6 c0.5 -2.1 2.1 -8.8 3.4 -14.7 3.5 -15.6 9.6 -41.7 10.1 -43.2 0.3 -0.8 -0.1 -1.2 -1.2 -1 -1.2 0.2 -3.1 6.7 -8.4 29.3 -3.8 16 -7.1 30 -7.4 31.3 -1 4.1 2.3 2.5 3.5 -1.7z m28.9 -10.3 c1.8 -7.9 4.1 -15.9 5.1 -17.8 1.7 -3.5 1.7 -12 0 -12 -0.4 0 -1.3 2.8 -2 6.3 -0.6 3.4 -2.9 13.3 -4.9 22 -2.5 10.4 -3.4 15.7 -2.7 15.7 0.7 0 2.6 -6.1 4.5 -14.2z m32.1 13.8 c0 -0.1 1.8 -8 4 -17.5 2.2 -9.4 4 -17.8 4 -18.6 0 -0.8 -1.4 -2.9 -3.1 -4.7 -2.8 -3 -2.9 -3.1 -1.3 -0.5 2.2 3.5 1.5 10 -2.6 27.3 -3.4 14.1 -3.4 14.4 -2 14.4 0.6 0 1 -0.2 1 -0.4z m40.7 -1.5 c1.1 -1.8 0.9 -2 -2 -2.3 -3.1 -0.3 -3.2 -0.5 -3.9 -5.8 -2.2 -15.7 -5.1 -32.6 -5.9 -33.4 -1.7 -1.8 -2.1 0.3 -1.1 5.1 0.6 2.6 2.1 10 3.2 16.3 4.1 22.7 3.9 22 6.3 22 1.2 0 2.8 -0.9 3.4 -1.9z m185.9 -20.2 c4.2 -18 5 -23.9 2.9 -21.8 -0.2 0.2 -2.2 8.5 -4.4 18.4 -2.3 9.9 -4.5 19.7 -5 21.8 -0.7 2.8 -0.6 3.7 0.2 3.4 0.7 -0.2 3.5 -10 6.3 -21.8z m116.7 15.3 c0.3 -3.7 1.7 -11.4 3.2 -17 2.5 -10.2 2.6 -13.1 0.2 -15 -0.9 -0.8 -1.2 0.5 -1.2 5.3 0 3.4 -0.5 6.9 -1.1 7.6 -0.6 0.8 -1.4 3.8 -1.7 6.7 -0.4 3 -1.7 7.4 -3.1 9.8 -1.9 3.3 -2.1 4.4 -1 4.4 0.8 0 1.4 0.8 1.4 1.8 0 1.9 0.8 3.2 2 3.2 0.4 0 1 -3 1.3 -6.8z m77.8 -2.9 c1.2 -5.4 3.4 -15.2 5 -21.7 1.6 -6.6 2.7 -12.1 2.5 -12.4 -1.1 -1 -2.4 1.1 -3.1 4.5 -0.3 2.1 -2.4 11.3 -4.6 20.4 -4.2 17.9 -4.4 18.9 -3 18.9 0.5 0 1.9 -4.4 3.2 -9.7z m85 -4 c1.7 -7.6 4.2 -15.9 5.5 -18.5 1.3 -2.7 1.9 -4.8 1.4 -4.8 -0.5 0 -1 -1.7 -1.2 -3.7 -0.5 -5.1 -0.9 -4 -6.2 19.2 -5.1 21.9 -5 21.5 -3.7 21.5 0.5 0 2.4 -6.2 4.2 -13.7z m35.6 -1.4 c4.5 -19.4 4.8 -21.6 3.3 -24.5 -2 -3.7 -2.5 -2.9 -2.2 3.3 0.2 4.1 -0.7 10.2 -3.2 20.6 -4.1 17.1 -4 16 -2.4 15.5 0.6 -0.2 2.7 -6.9 4.5 -14.9z m-1540.4 12 c-2.2 -1.1 -5.4 -3.9 -7 -6.1 -2.7 -4 -2.8 -4.5 -2.8 -17.2 0 -12.5 0.1 -13.4 2.9 -18.6 1.5 -3 4.4 -7.3 6.5 -9.4 3.3 -3.6 3.3 -3.7 0.5 -1.5 -14.3 11.2 -19 33.3 -9.7 45.7 3 3.9 9.9 9.2 12.2 9.2 0.9 0 -0.3 -0.9 -2.6 -2.1z m415 -2 c-1 -2 -1.4 -4.6 -1 -7.5 0.2 -2.4 0.3 -4.4 0.1 -4.4 -1.1 0 -3.4 6.4 -2.9 8 0.6 1.8 4.3 7 5 7 0.2 0 -0.3 -1.4 -1.2 -3.1z m257.7 1.6 c-0.7 -0.9 -1 -3.8 -0.8 -8 0.3 -6.3 0.3 -6.4 -1.4 -4.3 -2.8 3.6 -2.7 6.8 0.4 11 1 1.6 2.2 2.8 2.5 2.8 0.3 0 0 -0.7 -0.7 -1.5z m466.4 -2.2 c-0.7 -1.6 -1.4 -3.4 -1.4 -4 0 -0.7 -0.7 -1.3 -1.5 -1.3 -1.3 0 -1.4 0.4 -0.4 2.3 1.1 2.1 3.9 5.7 4.5 5.7 0.2 0 -0.4 -1.2 -1.2 -2.7z m167.1 -4.8 c0 -7.3 0 -7.4 -1.7 -5.2 -2.6 3.3 -2.6 6.5 -0.1 10.4 0.8 1.2 1.6 2.3 1.7 2.3 0 0 0.1 -3.4 0.1 -7.5z m-1241.9 4.3 c-1.1 -1.5 -1.6 -4.6 -1.6 -9.5 l0 -7.3 20.5 0 20.5 0 0 -4.2 c-0.1 -2.4 -0.7 -5.6 -1.5 -7.3 -1.3 -2.9 -1.3 -2.8 -1.4 3.8 l-0.1 6.7 -18.1 0 -18.1 0 0.4 -5 c0.1 -2.8 0.2 -5 0.1 -5 -0.2 0 -1.5 2.4 -3 5.3 -3.8 7.4 -3.8 14.8 0 20.5 1.5 2.3 3 4.2 3.3 4.2 0.3 0 -0.2 -1 -1 -2.2z m722.8 -1.3 c-2.2 -5.5 -1.8 -16 1.1 -23 2.1 -5.2 2.2 -5.7 0.5 -3.5 -2.9 3.7 -6 12.5 -6 17.1 0 3.7 1.8 8.6 4.2 11.7 1.7 2 1.8 1.4 0.2 -2.3z m-538.4 0.6 c-1.5 -2.9 -1.2 -18.2 0.5 -23 1.9 -5.5 1.1 -5.2 -1.9 0.7 -4.4 8.7 -4.2 17.2 0.5 22.9 1.7 1.9 2.1 1.6 0.9 -0.6z m305 0 c-1.5 -2.9 -1.2 -18.2 0.5 -23 1.9 -5.5 1.1 -5.2 -1.9 0.7 -4.4 8.7 -4.2 17.2 0.5 22.9 1.7 1.9 2.1 1.6 0.9 -0.6z m526.4 -1.8 c-1.4 -4.1 -1.7 -8.5 -0.8 -12 0.6 -2.2 0.9 -2.3 20.8 -2.5 l20.1 -0.3 0.3 -3.1 c0.2 -1.7 -0.4 -4.7 -1.2 -6.5 l-1.4 -3.4 -0.1 6.3 -0.1 6.2 -18.5 0 -18.5 0 0 -3.1 c0 -1.7 0.5 -4 1.1 -5.1 0.6 -1.1 0.7 -1.8 0.2 -1.5 -1.6 1 -5.5 9.8 -6 13.7 -0.6 4.6 0 7.4 2.7 11.8 2.6 4.2 3.1 4.1 1.4 -0.5z m168.2 1.5 c-2.2 -3 -2.2 -18.5 -0.1 -23.5 1.3 -3.1 1.3 -3.4 0 -2.3 -1.8 1.5 -5.5 11.2 -5.5 14.6 0 3 2.5 9.2 4.7 11.6 2.2 2.5 2.7 2.2 0.9 -0.4z m196.2 -0.9 c-1.5 -4.4 -0.5 -19.6 1.6 -23.9 1.5 -3.1 1.5 -3.3 0 -1.5 -5.7 6.9 -7.4 18.5 -3.5 24.8 2.8 4.5 3.3 4.7 1.9 0.6z m-968.6 -7.2 c-0.2 -6.4 0.1 -10.7 1.2 -13.7 2.2 -6.5 1 -6.2 -2 0.5 -3.3 7.2 -3.8 15.7 -1.1 19.8 1 1.5 1.8 2.7 2 2.7 0.1 0 0.1 -4.2 -0.1 -9.3z m370.7 6.1 c-0.5 -1.8 -0.9 -5.6 -0.9 -8.5 l0 -5.3 20.8 -0.2 20.7 -0.3 0.3 -3.1 c0.2 -1.7 -0.4 -4.7 -1.2 -6.5 l-1.4 -3.4 -0.1 6.3 -0.1 6.2 -18.6 0 -18.6 0 0.4 -4.5 c0.2 -2.5 0.2 -4.5 0 -4.5 -0.2 0 -1.5 2.5 -2.9 5.6 -2.9 6.5 -2.9 14 0.1 18.7 2.4 3.5 2.7 3.4 1.5 -0.5z m325.5 0.4 c1.3 -2.6 1.3 -3.2 -0.4 -6 -1.7 -2.7 -10.4 -8.3 -12.7 -8.2 -0.4 0.1 1 1 3.2 2.2 6.6 3.4 7.5 4.6 7.5 10 0 2.6 0.2 4.8 0.5 4.8 0.2 0 1.1 -1.3 1.9 -2.8z m195.2 -8 c0 -7.8 0.5 -11.8 1.7 -14.7 l1.7 -4 -2 2.5 c-4.7 6 -6.6 18.1 -3.6 23.8 0.9 1.8 1.8 3.2 1.9 3.2 0.1 0 0.2 -4.8 0.3 -10.8z m-776.6 4.4 c5.2 -8.5 5.6 -19.4 0.9 -24.8 -1.9 -2.2 -2 -2.2 -1 -0.1 0.6 1.2 1.1 5.7 1.1 10.1 0 8.3 -1.7 15.1 -4.8 18.6 -1.6 2 -1.6 2 0 0.7 1 -0.7 2.7 -2.8 3.8 -4.5z m-301.9 -7.8 c2 -6.5 2 -7 0.4 -11.8 -2.2 -6.7 -3.4 -7.1 -2.3 -0.8 1.1 6.1 -0.1 14.7 -3.1 21 l-2.1 4.3 2.5 -3 c1.4 -1.6 3.5 -6 4.6 -9.7z m-248.8 5.3 c1 -1.7 1.3 -3.1 0.8 -3.1 -0.6 0 -1.1 0.4 -1.1 0.9 0 0.4 -1.2 2.6 -2.6 4.7 -1.7 2.5 -2 3.3 -0.8 2.2 1.1 -0.9 2.7 -3 3.7 -4.7z m1443.8 -1.4 c3.2 -6.1 3.5 -12.5 1 -17.5 -1.2 -2.3 -2.3 -4.2 -2.5 -4.2 -0.2 0 0.1 1.9 0.6 4.3 1.3 5.5 0.3 14.7 -2.2 20.5 -2.3 5.4 -0.2 3.3 3.1 -3.1z m-1114.7 -15.6 c-4.2 -8.9 -7.9 -16 -8.1 -15.8 -0.1 0.2 3.2 7.6 7.4 16.5 4.2 8.9 7.9 15.9 8.1 15.7 0.2 -0.2 -3.1 -7.6 -7.4 -16.4z m788.5 8.5 c-0.9 -0.9 -9.9 -4.5 -9.9 -4 0 0.6 8.1 4.3 9.4 4.4 0.5 0 0.7 -0.2 0.5 -0.4z m-11.9 -6.5 c-0.5 -1.1 -1 -3.4 -1 -5.1 0 -1.8 -0.4 -2.9 -1 -2.5 -1.5 0.9 -1.2 4.8 0.6 7.3 1.9 2.7 2.8 2.9 1.4 0.3z m-633 -7 c-0.5 -1.1 -1.5 -2.3 -2.2 -2.7 -0.6 -0.4 -0.9 -0.3 -0.6 0.2 0.3 0.5 0.8 1.7 1.1 2.7 0.4 0.9 1.1 1.7 1.7 1.7 0.8 0 0.8 -0.6 0 -1.9z m663 0 c-0.5 -1.1 -1.5 -2.3 -2.2 -2.7 -0.6 -0.4 -0.9 -0.3 -0.6 0.2 0.3 0.5 0.8 1.7 1.1 2.7 0.4 0.9 1.1 1.7 1.7 1.7 0.8 0 0.8 -0.6 0 -1.9z m229 1.2 c0 -0.5 -0.9 -1.9 -2 -3.3 l-2 -2.5 1.1 3.3 c1 2.8 2.9 4.5 2.9 2.5z m-1165.5 -8.3 c0.8 -1.3 -2.5 -1.3 -4.5 0 -1.2 0.8 -0.9 1 1.2 1 1.5 0 3 -0.4 3.3 -1z m-84.7 -0.7 c-1 -0.2 -2.8 -0.2 -4 0 -1.3 0.2 -0.5 0.4 1.7 0.4 2.2 0.1 3.2 -0.1 2.3 -0.4z m287.5 0 c-1.8 -0.2 -4.8 -0.2 -6.5 0 -1.8 0.2 -0.4 0.4 3.2 0.4 3.6 0 5 -0.2 3.3 -0.4z m58.5 0 c-1.6 -0.2 -4 -0.2 -5.5 0 -1.6 0.2 -0.3 0.4 2.7 0.4 3 0 4.3 -0.2 2.8 -0.4z m144.5 0 c-1.3 -0.2 -3.3 -0.2 -4.5 0 -1.3 0.2 -0.3 0.4 2.2 0.4 2.5 0 3.5 -0.2 2.3 -0.4z m164 0 c-1.3 -0.2 -3.3 -0.2 -4.5 0 -1.3 0.2 -0.3 0.4 2.2 0.4 2.5 0 3.5 -0.2 2.3 -0.4z m188.5 0 c-1 -0.2 -2.8 -0.2 -4 0 -1.3 0.2 -0.5 0.4 1.7 0.4 2.2 0.1 3.2 -0.1 2.3 -0.4z m335.5 0 c-1.8 -0.2 -4.8 -0.2 -6.5 0 -1.8 0.2 -0.4 0.4 3.2 0.4 3.6 0 5 -0.2 3.3 -0.4z m58.5 0 c-1.6 -0.2 -4 -0.2 -5.5 0 -1.6 0.2 -0.3 0.4 2.7 0.4 3 0 4.3 -0.2 2.8 -0.4z m144.5 0 c-1.3 -0.2 -3.3 -0.2 -4.5 0 -1.3 0.2 -0.3 0.4 2.2 0.4 2.5 0 3.5 -0.2 2.3 -0.4z m-1490.7 -7 c-0.8 -1.6 -2.9 -4.1 -4.7 -5.8 l-3.3 -3 2.7 3.3 c1.5 1.9 3 4.4 3.3 5.8 0.3 1.3 1.3 2.4 2 2.4 1.3 0 1.2 -0.4 0 -2.7z m495.4 -9.8 c0 -0.8 -0.4 -1.5 -0.9 -1.5 -0.5 0 -1.1 0.7 -1.5 1.5 -0.3 0.9 0 1.5 0.9 1.5 0.8 0 1.5 -0.7 1.5 -1.5z m693.8 -0.3 c0.6 -1.8 -1.5 -1.4 -2.2 0.4 -0.4 1 -0.1 1.4 0.6 1.2 0.6 -0.2 1.4 -1 1.6 -1.6z m197.2 0.3 c0 -0.8 -0.4 -1.5 -1 -1.5 -0.5 0 -1 0.7 -1 1.5 0 0.8 0.5 1.5 1 1.5 0.6 0 1 -0.7 1 -1.5z m-1408.5 -1.6 c6.3 -0.1 6.6 -0.2 3 -0.9 -3.8 -0.8 -13.2 0.3 -14.4 1.7 -0.3 0.3 0.5 0.3 1.9 0 1.4 -0.4 5.7 -0.7 9.5 -0.8z m104 -54 c32.2 -3.9 58.8 -18.5 76.9 -42.2 5.1 -6.8 14.3 -22.4 13.5 -23.1 -0.2 -0.2 -10.7 -1.8 -23.4 -3.5 -12.6 -1.8 -23.7 -3.5 -24.6 -3.7 -1.2 -0.3 -2.8 1.5 -5.7 6.9 -7.8 14.1 -19 23.8 -32.4 27.8 -5.6 1.7 -8.9 2.1 -17.6 1.8 -9.5 -0.4 -11.4 -0.8 -16.6 -3.4 -7.2 -3.6 -12.8 -9.9 -15.7 -17.4 -1.8 -4.7 -2.1 -7.8 -2.2 -19.6 -0.1 -16.7 1.7 -27.7 7.1 -44 8.4 -25.2 23.9 -41.9 43.6 -47.1 7.3 -2 26 -1.8 32.2 0.3 10.9 3.6 18.1 11.8 21.1 23.8 1.5 6.3 1.6 6.3 4.7 5.9 1.7 -0.2 13 -1.3 25.1 -2.5 12.1 -1.1 22.1 -2.1 22.1 -2.2 0.4 -0.5 -3.5 -13.6 -5.1 -17.1 -6.2 -14.4 -21.9 -29.1 -38.1 -35.9 -40.4 -17 -95.6 -6.2 -129.8 25.4 -17.1 15.8 -30.4 40.9 -34.9 66 -4.5 24.5 -2.5 41.8 7 60.9 3.9 8 6.2 11 13.8 18.5 7.7 7.7 10.5 9.8 19.5 14.3 18.7 9.3 38.4 12.7 59.5 10.1z m246.5 0.1 c27.6 -3.4 50.1 -14 67.3 -31.9 7.7 -8 16.6 -19.7 15.6 -20.4 -0.2 -0.2 -10.5 -1.8 -22.8 -3.7 -18.8 -2.8 -22.5 -3.1 -23.1 -1.9 -6.8 11.9 -21.4 22.3 -34.9 24.9 -7.1 1.3 -19.7 1.3 -26.3 -0.1 -11.6 -2.4 -24 -11.9 -29.1 -22.2 -3.3 -6.8 -4.9 -15.5 -4.5 -24.7 l0.3 -7.5 71 -0.2 c39.1 -0.1 73.1 -0.2 75.6 -0.2 l4.7 -0.1 1.7 -9.1 c2.1 -11.9 2.2 -31.9 0 -42.4 -6.3 -30.7 -25.4 -51.1 -56 -60 -25.9 -7.5 -61.1 -3.8 -86.9 9.1 -21 10.6 -39.7 29.5 -50.5 51 -11.7 23.5 -15.1 50.4 -9.2 72.9 9.1 34.3 38.9 59.9 76.1 65.4 4.1 0.6 8.6 1.3 10 1.5 5.1 0.7 12.8 0.6 21 -0.4z m597 0 c17.2 -2.2 30.6 -7.5 45 -17.8 6.8 -4.9 9.3 -6.2 12.3 -6.2 3.4 0 3.7 0.2 3.7 2.8 0 1.5 -0.9 6 -1.9 10 l-1.9 7.2 25.1 -0.2 25.2 -0.3 1.7 -8 c0.9 -4.4 4 -17.7 6.8 -29.5 2.7 -11.8 6.6 -28.5 8.6 -37 3.3 -14.5 15.7 -68.1 18.9 -81.5 0.8 -3.3 3.7 -15.9 6.5 -28 2.8 -12.1 5.9 -25.6 7 -30 1 -4.4 4.2 -18.1 7 -30.5 2.8 -12.4 5.3 -23.3 5.6 -24.2 0.5 -1.7 -1.2 -1.8 -26.1 -1.8 -20.4 0 -26.6 0.3 -26.9 1.2 -0.2 0.7 -1.5 6.5 -2.9 12.8 -1.5 6.3 -4.7 20.1 -7.1 30.5 -2.4 10.5 -5.7 24.4 -7.2 31 -1.4 6.6 -3.4 15.2 -4.4 19 l-1.7 7 -3.9 0.2 c-3.6 0.3 -4.2 -0.1 -7.7 -4.6 -13.2 -17.3 -40.8 -27.5 -67.7 -25 -35.9 3.3 -64.5 24.5 -83.8 62.1 -9.9 19.3 -14.6 38.7 -14.6 60.3 0.1 16.5 1.4 24.5 6.2 36.8 8.9 23 30.8 39.8 56.7 43.6 8.5 1.2 11.9 1.2 21.5 0.1z m288 0 c26.7 -3.3 48 -13.1 65.1 -30 10.4 -10.3 18.9 -21.7 16.7 -22.5 -0.7 -0.2 -10.9 -1.8 -22.7 -3.6 -19.1 -2.8 -21.5 -3 -22.3 -1.6 -1.7 3.1 -9.4 11.6 -13.3 14.7 -9.4 7.5 -20.6 11 -35.5 11 -19.6 0 -34.2 -8.5 -42 -24.4 -3.2 -6.4 -3.4 -7.7 -3.8 -18.6 l-0.4 -11.7 3.3 -0.7 c1.9 -0.3 34.5 -0.6 72.4 -0.6 38 0 70.6 0 72.6 0 l3.7 0 1.1 -6.2 c0.7 -3.5 1.5 -12.2 1.8 -19.5 0.7 -14.4 -0.5 -24.6 -3.9 -35.3 -13.6 -42.6 -58.5 -62.9 -112.7 -51.1 -34.4 7.5 -61.9 28.9 -77.9 60.3 -9.2 18.1 -12.7 33.7 -11.9 53.8 0.8 19.4 4.8 32.1 14.9 46.7 19.5 28.1 57.3 43.8 94.8 39.3z m219.4 -1 c3.3 -0.5 6.3 -1.4 6.6 -2 0.4 -0.6 2.2 -7.7 4 -15.8 1.8 -8 3.4 -15.1 3.6 -15.7 0.3 -0.7 -4.3 -1 -13.8 -1 -16.4 0 -20.5 -1.2 -23.2 -7 -3.1 -6.5 -2.2 -12.4 9.7 -63.5 3.1 -12.9 7.2 -30.9 9.3 -40 2 -9.1 4.1 -17.1 4.7 -17.7 0.7 -1 5.7 -1.3 18.8 -1.3 17.7 0 17.9 0 18.4 -2.2 3.7 -16.2 6.7 -28.6 7.1 -30 0.5 -1.7 -0.8 -1.8 -17 -1.8 l-17.6 0 0 -4.3 c0 -2.4 2.9 -16.9 6.6 -32.2 3.6 -15.2 6.4 -27.8 6.2 -28 -0.2 -0.1 -13.8 7.1 -30.3 16 l-30 16.3 -3.7 15.4 c-2 8.4 -3.7 15.6 -3.7 16 -0.1 0.4 -6.7 0.9 -14.8 1 l-14.8 0.3 -3.7 15.5 c-2.1 8.5 -3.7 16 -3.8 16.7 0 0.9 3.6 1.3 13.3 1.5 l13.2 0.3 -0.1 6 c-0.1 3.5 -2.8 17 -6.3 32 -3.4 14.3 -6.8 28.9 -7.6 32.5 -0.8 3.6 -3 13.3 -4.8 21.5 -6.1 26.7 -7.1 33.9 -5.7 40.4 5 22.7 26.4 33.9 62 32.5 6.4 -0.2 14.2 -0.9 17.4 -1.4z m-925.1 -14.2 c1.4 -6.2 4.9 -21.2 7.7 -33.3 2.8 -12.1 6.3 -26.9 7.7 -33 10.8 -46.3 17.5 -60.6 34.6 -74.1 12.2 -9.5 26.9 -15.4 38.8 -15.4 17.6 0 27.6 6.8 29.3 20 0.7 5.4 -0.5 15.7 -3.3 28 -1.1 4.7 -3.3 14.4 -5 21.5 -1.6 7.2 -4.5 19.8 -6.5 28 -1.9 8.3 -4.6 20 -6 26 -1.4 6.1 -4.1 17.9 -6.1 26.3 -1.9 8.4 -3.5 15.7 -3.5 16.2 0 0.6 9.8 1 26.3 1 l26.3 0 2.2 -9.7 c1.3 -5.4 4.1 -17.4 6.2 -26.8 2.2 -9.3 5 -21.7 6.4 -27.5 18.3 -79.3 19.2 -83.8 17.7 -92.7 -4.4 -26.7 -25.7 -42.6 -56.7 -42.4 -21.8 0.1 -40 6.4 -63 21.7 -7.9 5.3 -12 7.4 -14.2 7.4 -3.1 0 -3.2 -0.2 -3.2 -3.9 0 -3.4 1.9 -13.6 3.6 -19.3 0.5 -1.7 -1.1 -1.8 -24.5 -1.8 -22.9 0 -25 0.1 -25.5 1.8 -0.5 1.8 -8.8 37.1 -15.1 64.7 -2 8.8 -5 21.4 -6.5 28 -1.6 6.6 -3.8 16.1 -5 21 -1.1 5 -2.9 12.8 -4 17.5 -1.1 4.7 -4.7 20.1 -8 34.3 -3.3 14.1 -6 26.2 -6 26.7 0 0.6 9.7 1 26.3 1 l26.3 0 2.7 -11.2z m259.7 10.5 c0 -0.3 2.9 -13.3 6.5 -28.7 8.8 -37.8 9.5 -40.8 17 -73.1 3.6 -15.4 7.7 -32.9 9.1 -39 1.4 -6 4.8 -20.3 7.5 -31.8 2.7 -11.4 4.9 -21 4.9 -21.2 0 -0.3 -11.9 -0.5 -26.4 -0.5 -24.3 0 -26.5 0.1 -27 1.8 -0.3 0.9 -3.2 13.4 -6.5 27.7 -9.6 41.6 -15.7 68 -23.1 99.5 -5.6 24.1 -11.6 49.6 -14.7 63.8 l-0.5 2.2 26.6 0 c14.6 0 26.6 -0.3 26.6 -0.7z m57.3 -247.5 c2.6 -11.2 4.8 -20.9 4.7 -21.5 0 -1 -5.9 -1.3 -26.3 -1.3 l-26.3 0 -2.3 10.3 c-1.3 5.6 -3.4 14.8 -4.7 20.4 -1.3 5.7 -2.4 10.7 -2.4 11.3 0 0.6 9.2 1 26.3 1 l26.3 0 4.7 -20.2z"/>
  <path d="M378 267.3 c0 -11.2 6.7 -25.1 17 -35.3 12 -12 24.6 -16.7 42.5 -15.7 11.6 0.7 17.9 2.7 25.2 8 10.1 7.5 15.2 20.6 15.3 39 l0 8.7 -50 0 -50 0 0 -4.7z"/>
  <path d="M1022.7 351 c-14.7 -4.7 -25 -16.8 -27.8 -32.6 -1.5 -8.6 -0.6 -31.4 1.6 -40.4 1.9 -7.9 5.7 -18.5 8.6 -24.2 3.6 -7.2 11.8 -18.4 16.8 -23.1 10.7 -10 19.8 -13.1 37.5 -12.5 11 0.3 12.6 0.6 18 3.3 12.3 6.2 21.8 18.7 24.7 32.4 1.8 8.7 0.6 32.8 -2.1 42.6 -8.5 31.1 -25.4 50.7 -47.8 55.4 -8.2 1.7 -22.8 1.3 -29.5 -0.9z"/>
  <path d="M1262 268.6 c0 -4.8 3.6 -15.9 7.6 -23.6 9.1 -17.3 24.7 -27.4 44.5 -28.7 17 -1.1 29.2 2.8 37.8 12.2 7.4 8.2 9.3 14.1 9.9 30.3 l0.4 13.2 -50.1 0 -50.1 0 0 -3.4z"/>
 </g>
 <g fill="#162883">
  <path d="M432.7 642.3 c-0.2 -0.5 -0.2 -1.4 -0.1 -2 0.1 -0.7 0.2 -2.2 0.3 -3.3 0.1 -1.7 0.8 -2 4.4 -2 5.2 0 7.9 -1.8 11.3 -7.6 l2.6 -4.5 -2.7 -15.2 c-1.5 -8.4 -3.5 -19.6 -4.5 -24.9 l-1.7 -9.8 4.7 0 4.7 0 2.7 17.8 c3.2 19.9 3.2 20.2 4.3 20.2 0.4 -0.1 6 -8.6 12.3 -19 l11.5 -19 4.8 0 c2.6 0 4.7 0.3 4.7 0.6 0 0.7 -32.4 52.7 -37.8 60.8 -4.1 6.1 -8.7 8.6 -15.4 8.6 -3.1 0 -5.9 -0.3 -6.1 -0.7z"/>
  <path d="M1421.5 641.6 c-5.2 -2 -9.5 -6.7 -9.5 -10.6 0 -2.9 0.2 -3 4.6 -3 4.1 0 4.6 0.3 5.5 2.9 1.2 3.5 4.6 5.1 10.7 5.1 8.9 0 14.3 -4.7 15.8 -13.8 l0.7 -4.2 -5.8 2.6 c-7.3 3.4 -14.4 3 -20.4 -0.9 -13.8 -9.2 -10.3 -33.9 6.3 -44.1 9.1 -5.7 24 -4.3 27.7 2.6 1.1 2.1 1.2 2.1 2.5 0.3 0.8 -1 1.4 -2.7 1.4 -3.7 0 -1.5 0.8 -1.8 4.6 -1.8 3.8 0 4.5 0.3 4 1.8 -0.8 3.1 -3.5 14.4 -7.6 32.7 -4.9 22 -7.5 27.8 -14.3 31.9 -4.2 2.6 -6 3 -13.5 3.3 -5.9 0.2 -10 -0.1 -12.7 -1.1z m24.5 -29.1 c7.1 -4.9 11.9 -18.5 9 -25.5 -2.1 -5.1 -6.5 -8 -11.8 -8 -5.8 0 -10.1 2.5 -14.1 8 -7.1 9.8 -5.8 24.5 2.4 28.1 3.5 1.5 10.3 0.3 14.5 -2.6z"/>
  <path d="M610 621.3 c-8.6 -4.6 -11.9 -12.3 -9.9 -23.8 2.8 -15.9 13.8 -25.5 29.4 -25.5 7.4 0 13.5 2.8 17.9 8.3 2.7 3.4 3 4.4 3.1 11.5 l0 7.7 -20.5 0.5 c-20.4 0.5 -20.5 0.5 -20.8 2.8 -0.5 3.6 1.7 8.9 4.9 11.7 5.7 4.7 15 2.7 21.3 -4.6 3.2 -3.8 6.1 -4.8 10 -3.3 2.4 0.9 1.9 2.6 -2 7.2 -5.7 6.7 -11.3 9.5 -20.3 10 -6.9 0.4 -8.1 0.1 -13.1 -2.5z m31.4 -32.1 c-0.2 -11.8 -16.1 -14.6 -25.6 -4.5 -2.9 3 -5.1 7.7 -4 8.7 0.3 0.4 7.1 0.5 15.1 0.4 l14.6 -0.3 -0.1 -4.3z"/>
  <path d="M670.7 622.8 c-5.4 -1.4 -11.3 -7.4 -12.2 -12.1 -0.4 -2.1 -0.6 -3.9 -0.4 -4.1 0.2 -0.2 2.3 -0.6 4.7 -0.9 3.5 -0.4 4.4 -0.2 4.9 1.1 2.6 8.3 5.5 10.5 13.9 10.4 9 -0.1 14.3 -4.7 11.5 -10 -1.1 -2 -7.9 -5.7 -15.6 -8.3 -2.1 -0.8 -5.6 -3 -7.7 -5 -3.1 -2.9 -3.8 -4.3 -3.8 -7.4 0 -4.7 2.8 -9.4 7.2 -12 2.7 -1.6 5.1 -2 13.4 -2 9.4 0 10.3 0.2 14.1 2.8 3.9 2.7 5.8 5.8 6.5 10.2 0.3 1.7 -0.3 2 -4.2 2.3 -4.2 0.3 -4.6 0.1 -5.6 -2.6 -1.6 -4.2 -5.7 -6.5 -11.3 -6.6 -5.7 -0.1 -9.9 1.9 -10.7 5.1 -0.8 3.2 1.5 5.6 7.4 7.8 7.6 2.9 14.5 6.5 17.4 9.3 7.3 6.8 2.5 18.2 -9.1 22.1 -4.1 1.3 -15.1 1.3 -20.4 -0.1z"/>
  <path d="M719.9 622 c-5 -2.6 -7.3 -6.5 -7.3 -12.5 -0.2 -10.5 7.1 -14.9 26.7 -16.3 7.1 -0.6 13.3 -1.4 13.7 -1.8 0.9 -1 1.3 -3.6 1.1 -7.1 -0.1 -3.1 -4.8 -5.3 -11 -5.3 -6.7 0 -10 1.4 -13.7 5.6 -2.9 3.4 -3.3 3.6 -7.2 2.9 -2.3 -0.4 -4.2 -1 -4.2 -1.4 0 -0.5 1.3 -2.6 2.9 -4.8 4.3 -5.9 10.7 -8.7 20.9 -9.1 9.9 -0.5 15.8 1.3 19.8 6.1 2.4 2.9 2.6 3.7 2.1 9.2 -0.3 3.3 -1.7 10.7 -3.2 16.5 -1.8 7.4 -2.3 11.8 -1.9 14.8 l0.6 4.3 -4.8 -0.3 c-4.2 -0.3 -4.9 -0.6 -5.2 -2.5 -0.4 -2.9 -0.5 -2.9 -7.6 0.7 -7.2 3.7 -15.9 4.1 -21.7 1z m20.3 -6 c2.4 -0.1 8 -6.8 9.8 -11.7 1.1 -3.1 1.9 -5.7 1.8 -5.8 -0.2 -0.2 -5.4 0.3 -11.5 1.1 -15.3 1.8 -18.3 3.5 -18.3 10.3 0 5.2 6.2 8.4 13.5 7 2.2 -0.5 4.3 -0.8 4.7 -0.9z"/>
  <path d="M855.4 621.6 c-5.3 -2.5 -8.3 -5.8 -10.2 -11.5 -4 -11.6 3.6 -29.4 15.2 -35.3 5.1 -2.6 17.6 -3.6 23.1 -1.8 9.3 3.1 14.2 11.4 13.2 22.9 -0.7 8.7 -4 15.5 -10.2 20.9 -8.5 7.5 -21.2 9.4 -31.1 4.8z m19.6 -6.1 c5.6 -2.9 10.2 -9.8 12 -18 3.7 -16.6 -12.2 -25.4 -25 -13.9 -9.2 8.3 -10.8 27.2 -2.8 31.5 5.4 2.9 10.8 3 15.8 0.4z"/>
  <path d="M965.5 622.8 c-8.6 -3 -13.4 -10.2 -13.5 -20 0 -11.2 6.9 -23 16.5 -28.1 3.3 -1.8 5.7 -2.2 13.7 -2.2 9.1 0 9.9 0.2 13.9 3 6.2 4.4 8.4 9.3 8.3 18.5 -0.1 12.6 -5.9 21.9 -16.9 27.1 -4.8 2.3 -7.3 2.9 -12.5 2.8 -3.6 0 -7.8 -0.5 -9.5 -1.1z m19.6 -9 c5.5 -4.3 9.2 -11.5 9.7 -19 0.5 -6.8 -1 -11.1 -4.7 -13.7 -9.1 -6.4 -22.6 -0.4 -26.5 11.7 -3.2 9.7 -2.2 17.7 2.6 21.7 2.4 2 4 2.5 8.8 2.5 5.1 0 6.4 -0.4 10.1 -3.2z"/>
  <path d="M1109.5 622.1 c-8.1 -3.6 -12 -11.1 -11.3 -21.4 0.8 -11.9 7.4 -21.8 17.6 -26.5 4.5 -2 6.5 -2.4 13.1 -2.1 6.4 0.3 8.5 0.9 11.9 3.2 5.8 3.8 8.2 8.9 8.2 17.6 l0 7.1 -20.7 0.2 -20.8 0.3 0.3 4.4 c0.6 7.5 5.3 12.1 12.3 12.1 4.6 0 11.5 -3.6 14.5 -7.6 2.6 -3.4 4.6 -4 9.1 -2.8 2.1 0.6 2.1 0.8 0.9 3.3 -2.2 4 -8.6 9.8 -13.6 12 -5.9 2.7 -15.9 2.8 -21.5 0.2z m30.3 -31.5 c1.6 -13.3 -18.1 -16.4 -26.9 -4.3 -1.6 2.2 -2.9 4.8 -2.9 5.9 0 1.7 0.9 1.8 14.8 1.6 l14.7 -0.3 0.3 -2.9z"/>
  <path d="M1168.2 621.9 c-2.6 -1.3 -5.5 -3.9 -7 -6.2 -2.4 -3.6 -2.7 -5 -2.7 -12.1 0 -10.3 2.9 -17.8 9.1 -24 5.8 -5.8 12 -7.9 21.9 -7.4 6.4 0.3 7.8 0.7 11.2 3.4 4.6 3.8 7.7 10.9 5.3 12.4 -2.6 1.7 -8 1.2 -8.6 -0.7 -1.4 -4.3 -2.9 -6.2 -5.6 -7.4 -3.9 -1.6 -11 -0.6 -14.6 2 -7 5 -11.6 22.6 -7.8 29.9 2.1 4 4.4 5.2 10 5.2 3.7 0 5.2 -0.6 8.1 -3.1 2 -1.8 4.3 -4.5 5.1 -6 1.3 -2.5 2 -2.9 5.9 -2.9 3.4 0 4.5 0.4 4.5 1.5 0 2 -4.1 8.4 -7.1 11.2 -6.9 6.3 -19.6 8.2 -27.7 4.2z"/>
  <path d="M1284.5 622.9 c-9.4 -3.5 -14 -11.2 -13.3 -21.8 0.6 -8 3.3 -14.4 8.4 -20 5.7 -6.3 10.4 -8.4 20.4 -8.9 7.5 -0.3 9 -0.1 13 2 2.5 1.4 5.9 4.4 7.5 6.7 2.8 3.9 3 4.9 2.9 12.4 -0.1 12.9 -5.4 22.1 -15.8 27.4 -5.8 3 -17.9 4.1 -23.1 2.2z m19.5 -8.8 c8.8 -6.4 12.9 -22.4 7.7 -30.2 -3.1 -4.7 -9.1 -6.6 -15.2 -4.9 -17 4.8 -22 34.6 -6.3 37.9 4.1 0.9 10.5 -0.4 13.8 -2.8z"/>
  <path d="M1367.5 622.5 c-5.1 -2 -10.1 -6.9 -11.6 -11.3 -1.6 -4.9 -0.6 -16.8 1.8 -22.3 1.2 -2.6 3.8 -6.4 6 -8.6 5.7 -5.7 10.5 -7.7 19.8 -8.1 7.3 -0.3 8.5 -0.1 13.5 2.5 7.6 4 10.5 9.2 10.4 18.9 -0.1 11.8 -5.7 21.5 -15.5 26.9 -6.5 3.5 -17.9 4.4 -24.4 2z m20.6 -8.8 c8 -6 12.1 -20.2 8.3 -28.2 -2.3 -4.9 -8.4 -7.8 -14.4 -6.9 -5.8 0.9 -12.2 6.2 -14.8 12.1 -4.5 10.6 -3.8 18.9 2.1 23.9 2.8 2.3 3.8 2.6 9.2 2.2 4.7 -0.3 6.9 -1 9.6 -3.1z"/>
  <path d="M1509.2 621.9 c-2.6 -1.3 -5.5 -3.9 -7 -6.2 -2.4 -3.6 -2.7 -5 -2.7 -12.1 0 -10.3 2.9 -17.8 9.1 -24 5.8 -5.8 12 -7.9 21.8 -7.4 6.2 0.3 7.9 0.8 11 3.2 3.9 2.9 7 8.5 6.4 11.4 -0.2 1.3 -1.4 1.7 -4.8 1.7 -3.9 0 -4.5 -0.3 -4.8 -2.2 -0.2 -1.2 -1.7 -3.4 -3.5 -4.9 -2.7 -2.3 -3.8 -2.6 -8.2 -2.2 -3.3 0.3 -6.4 1.3 -8.5 2.8 -7.3 5.2 -11.6 23.6 -7.1 30.7 4.9 7.9 17.5 5.1 22.7 -4.9 1.2 -2.4 2.1 -2.8 5.5 -2.8 2.5 0 4.2 0.5 4.5 1.4 0.6 1.6 -3.2 8 -6.7 11.3 -6.9 6.3 -19.6 8.2 -27.7 4.2z"/>
  <path d="M1565.5 622.8 c-9.3 -3.3 -14 -11 -13.3 -21.7 0.6 -8 3.3 -14.4 8.4 -20.1 5.7 -6.3 12.1 -9 21.4 -9 15.9 0.1 24 8.5 22.7 23.7 -0.9 12 -9 23.2 -19.4 26.7 -5.2 1.8 -15.3 2 -19.8 0.4z m17.6 -7.4 c10.2 -5.1 15.7 -23.7 9.4 -32 -7.1 -9.3 -22 -5 -28.1 8.1 -2.8 5.8 -3.2 15 -1 19.4 3.4 6.5 11.9 8.4 19.7 4.5z"/>
  <path d="M521.3 620.8 c1.4 -5.6 12.5 -53.4 14.4 -62.3 l0.9 -4 18.9 0 c21.2 0 23.4 0.6 30.2 7.7 12.4 12.9 7.7 40.2 -9.1 52.9 -8.3 6.3 -12.5 7.2 -35.5 7.7 l-20.4 0.4 0.6 -2.4z m43.9 -9.1 c10.3 -5 16.7 -16.4 16.8 -29.5 0 -8.5 -2.2 -13.7 -7.2 -17.4 -3 -2.1 -4.6 -2.3 -16.4 -2.6 l-13.1 -0.4 -1.7 8.4 c-1 4.5 -3.6 15.7 -5.7 24.8 -2.2 9.1 -4.1 17.3 -4.4 18.4 -0.3 1.7 0.4 1.8 12.8 1.4 12 -0.3 13.8 -0.6 18.9 -3.1z"/>
  <path d="M771 622.3 c0 -0.4 2.2 -9.9 4.9 -21.2 2.7 -11.4 5.3 -22.3 5.6 -24.3 0.7 -3.7 0.8 -3.8 5.1 -3.8 4.3 0 4.4 0.1 3.8 2.8 -0.3 1.5 -0.7 3.3 -1 4 -0.2 0.7 1.9 -0.6 4.6 -2.9 4.2 -3.6 5.8 -4.3 10.3 -4.6 7.2 -0.5 8.3 0.4 6.3 5.1 -1.4 3.5 -1.8 3.7 -4.6 3.1 -10.4 -2.3 -17.4 6.2 -22.4 27.5 -1.5 6.3 -2.9 12.3 -3.2 13.3 -0.4 1.3 -1.6 1.7 -5 1.7 -2.4 0 -4.4 -0.3 -4.4 -0.7z"/>
  <path d="M807 622.1 c0 -0.5 1.8 -8.3 3.9 -17.3 2.1 -9 4.7 -19.8 5.6 -24 l1.7 -7.8 4.3 0 4.4 0 -1 3.2 c-1.4 5.1 -1.2 5.3 3.2 1.4 4.7 -4.3 7.7 -5.6 12.7 -5.6 5.6 0 6.5 1 4.8 5.1 -1.4 3.2 -1.6 3.4 -6.8 3.4 -10.6 0 -15.5 6.9 -20.9 29.3 l-3.1 13.2 -4.4 0 c-2.4 0 -4.4 -0.4 -4.4 -0.9z"/>
  <path d="M902 622.1 c0 -1 2.8 -13.4 11.8 -51.6 l3.7 -16 4.9 -0.3 c4.8 -0.3 4.8 -0.3 4.2 2.2 -0.3 1.4 -2 8.6 -3.6 15.9 -1.7 7.2 -5 21.5 -7.3 31.7 l-4.2 18.5 -4.8 0.3 c-2.8 0.2 -4.7 -0.1 -4.7 -0.7z"/>
  <path d="M926 622 c0 -0.6 2.1 -9.9 4.6 -20.8 2.6 -10.8 5.4 -23.3 6.4 -27.7 1 -4.4 2.4 -10.6 3.1 -13.7 l1.3 -5.8 4.8 0 c2.6 0 4.8 0.3 4.8 0.6 0 0.4 -1.1 5.2 -2.5 10.8 -1.3 5.5 -4.7 20.2 -7.5 32.6 -2.9 12.4 -5.3 23.1 -5.6 23.8 -0.4 1.5 -9.4 1.7 -9.4 0.2z"/>
  <path d="M1061 622.5 c0 -0.8 12.9 -56.6 13.6 -58.7 0.5 -1.7 -0.5 -1.8 -12 -1.8 -13.6 0 -13.7 0 -11.6 -5.4 l1 -2.6 30.1 0 30.1 0 -0.7 3.3 c-0.4 1.7 -0.9 3.5 -1.2 4 -0.2 0.4 -5.9 0.7 -12.7 0.7 l-12.2 0 -4.3 18.3 c-7.1 30.3 -9.2 39.1 -9.7 41 -0.4 1.3 -1.6 1.7 -5.5 1.7 -2.7 0 -4.9 -0.2 -4.9 -0.5z"/>
  <path d="M1210 621.5 c0 -1.3 9.4 -42.5 10.6 -46.7 0.4 -1.4 1.6 -1.8 4.9 -1.8 l4.4 0 -1 3.2 c-0.5 1.7 -0.7 3.3 -0.5 3.5 0.2 0.2 2.7 -1.2 5.5 -3.1 5.9 -4 10.1 -5.1 17.2 -4.4 5.8 0.6 10.3 4.2 11.3 8.9 0.5 2.7 -1.4 13.2 -6.2 33.9 l-1.8 7.5 -4.7 0.3 c-3.4 0.2 -4.7 -0.1 -4.7 -1 0 -0.7 1.8 -8.7 4 -17.7 2.2 -9 4 -17.5 4 -19.1 0 -4.5 -3 -6.3 -9.5 -5.8 -6.4 0.5 -11.6 4.1 -15.2 10.4 -2.4 4.1 -2.7 5 -6.3 20.4 -1.2 5.2 -2.4 10.3 -2.7 11.3 -0.6 2.3 -9.3 2.5 -9.3 0.2z"/>
  <path d="M1328.3 621.5 c0.6 -1.3 1.9 -7 11.8 -49.2 l4.3 -18.3 4.9 0 c3.5 0 4.8 0.4 4.5 1.3 -0.3 0.6 -3.5 14.5 -7.3 30.7 -3.7 16.2 -7.1 31.2 -7.6 33.3 -1 3.7 -1 3.7 -6 3.7 -4.1 0 -5 -0.3 -4.6 -1.5z"/>
  <path d="M1473 621.5 c0 -1.5 7.9 -36.7 10.1 -44.7 0.9 -3.7 1.1 -3.8 5.4 -3.8 3.4 0 4.5 0.4 4.5 1.5 0 0.9 -1.3 7.1 -2.9 13.8 -1.7 6.7 -4.2 17.3 -5.6 23.5 l-2.7 11.2 -4.4 0 c-3.3 0 -4.4 -0.4 -4.4 -1.5z"/>
  <path d="M1378 566.4 c0 -0.3 2.1 -3.2 4.6 -6.5 l4.5 -5.9 6.1 0 6 0 -6.9 6.5 c-5.8 5.5 -7.3 6.4 -10.5 6.5 -2.1 0 -3.8 -0.3 -3.8 -0.6z"/>
  <path d="M1487.1 559.3 c0.5 -2.1 0.9 -4.1 0.9 -4.5 0 -0.5 2.3 -0.8 5.1 -0.8 4.3 0 5 0.2 4.5 1.8 -0.3 0.9 -0.8 2.9 -1.2 4.5 -0.6 2.5 -1 2.7 -5.4 2.7 l-4.8 0 0.9 -3.7z"/>
  <path d="M1304.3 526 c-5.9 -1.4 -9.7 -4.3 -11.3 -8.8 -1.8 -5.1 -0.9 -6.1 4.7 -5.5 3.5 0.4 4.3 0.9 5.2 3.4 1.3 3.8 5.2 5.2 11.9 4.6 6.2 -0.7 9.6 -2.5 11.7 -6.6 1.3 -2.7 3.6 -11.1 3 -11.1 -0.2 0 -2.7 1.1 -5.7 2.5 -14.8 6.9 -28.8 -2.3 -28.8 -19 0 -16 13 -29.9 28 -29.8 6.4 0.1 9 1.1 13.7 5.5 l3.2 3.1 0.6 -3.7 c0.7 -3.5 0.9 -3.6 5.1 -3.6 2.4 0 4.4 0.3 4.4 0.8 0 0.4 -1.8 8.6 -4.1 18.2 -2.3 9.6 -5 21.3 -6 25.9 -3.2 14.5 -7.4 20.4 -16.6 23.7 -4.1 1.4 -13.9 1.7 -19 0.4z m21.7 -29.4 c7.6 -5 12.3 -20.2 8.6 -27.5 -2.5 -4.7 -9.2 -7.6 -14.5 -6.1 -8.8 2.3 -15.1 11.6 -15.1 22.3 0 6.9 2 10.9 6.4 13.2 3.9 2 9.9 1.2 14.6 -1.9z"/>
  <path d="M56.7 506.6 c-8.2 -2.4 -15.1 -9 -17.8 -17.1 -0.7 -2.2 -1.3 -7.8 -1.3 -12.5 0.1 -9.7 2.8 -17.9 8.5 -25.3 7.9 -10.3 17.7 -15 31.4 -15 10.8 -0.1 17.5 2.4 22.9 8.4 3.3 3.6 6.6 11.3 5.3 12.5 -0.3 0.3 -2.3 0.8 -4.6 1.1 -3.8 0.5 -4 0.4 -5.6 -3.3 -2.1 -5.1 -4.2 -7.3 -9 -9.5 -12.1 -5.6 -27.4 1.3 -34.8 15.6 -3 5.6 -3.2 6.7 -3.2 16.1 0 9.5 0.2 10.3 2.9 14.2 1.6 2.3 4.6 5 7 6.2 5.5 2.6 14.6 2.7 20.2 0.1 4.8 -2.2 10.7 -8 12.4 -12.1 1.1 -2.6 1.7 -3 5.4 -3 6.8 0 7.1 0.9 2.8 7.6 -7.3 11.3 -16.5 16.6 -29.7 17.1 -4.7 0.1 -10 -0.3 -12.8 -1.1z"/>
  <path d="M122.3 505.6 c-3.5 -1.7 -6.1 -3.8 -8 -6.7 -2.5 -3.9 -2.8 -5.1 -2.8 -12.8 0 -7.4 0.4 -9.3 2.8 -13.9 5.8 -11.1 14.9 -16.6 27.3 -16.5 7 0.1 12.8 2.6 16.7 7.2 3 3.6 4.9 11.7 4.1 17.2 l-0.7 3.9 -20.3 0 -20.4 0 0 4.1 c0 5.6 3.1 10.5 7.6 11.9 6.5 2.2 15.6 -1.2 19.1 -7.1 1.5 -2.5 2.4 -2.9 5.8 -2.9 2.3 0 4.4 0.3 4.8 0.6 1.9 1.9 -6.8 11.5 -13.5 15 -1.8 1 -6.4 1.9 -10.3 2.1 -5.9 0.3 -7.8 0 -12.2 -2.1z m30.7 -32.2 c0 -13 -18.3 -15.2 -27 -3.2 -4.9 6.8 -4.9 6.8 12 6.8 l15 0 0 -3.6z"/>
  <path d="M237.6 507 c-3.9 -1.2 -6.6 -3.9 -6.6 -6.6 0 -1.2 1.8 -9.8 4 -19 2.1 -9.2 3.7 -17.1 3.4 -17.6 -0.3 -0.4 -1.9 -0.8 -3.6 -0.8 -2.7 0 -3 -0.3 -2.4 -2.2 0.3 -1.3 0.6 -2.6 0.6 -3 0 -0.4 1.7 -0.8 3.8 -1 3.6 -0.3 3.7 -0.4 5.3 -6.3 1.4 -5.4 2 -6.2 6.3 -8.8 2.6 -1.6 5 -2.6 5.3 -2.3 0.4 0.4 -0.2 4.2 -1.4 8.6 -1.1 4.3 -1.8 8.1 -1.5 8.4 0.3 0.4 2.4 0.6 4.8 0.6 4.1 0 4.2 0.1 3.5 2.8 -0.7 2.4 -1.3 2.7 -5.4 3 -4.4 0.3 -4.7 0.5 -5.6 4 -3.1 11.3 -6.2 25.4 -6.4 28.8 l-0.2 3.9 4.5 0.5 c4.1 0.5 4.5 0.7 4.2 3 -0.2 1.4 -0.7 2.9 -1.2 3.3 -1.2 1.3 -8.2 1.7 -11.4 0.7z"/>
  <path d="M308.6 506.1 c-9.7 -3.9 -13.3 -10.4 -12.3 -22 1 -12.4 8.8 -23.3 19.1 -26.8 10.2 -3.4 22.7 -1.2 28.3 4.8 2.8 3.1 5.3 10.1 5.3 14.9 0 6.2 -3.6 16.2 -7.5 20.7 -7.5 8.8 -22.4 12.6 -32.9 8.4z m21.1 -8.8 c9.7 -7.8 12.7 -25 5.5 -31.4 -11.7 -10.5 -29.2 2 -29.2 20.8 0 10.2 4.4 14.6 14.2 14 4.6 -0.3 6.5 -0.9 9.5 -3.4z"/>
  <path d="M471.3 506 c-7.9 -3.5 -10.7 -13 -6 -20.1 3.7 -5.7 9.5 -7.8 24.1 -8.9 7 -0.5 13.4 -1.4 14.2 -2.1 1.5 -1.2 1.9 -6.6 0.6 -8.5 -1.4 -2.2 -5.2 -3.4 -10.7 -3.4 -6.9 0 -11.5 2 -13.9 6.1 -1.1 1.9 -2.3 2.8 -3.3 2.5 -0.8 -0.3 -2.8 -0.6 -4.4 -0.6 -4.2 0 -3.7 -2.2 1.9 -7.9 5.6 -5.8 10.3 -7.5 20.9 -7.3 7.9 0.1 14.4 2.3 17.8 6.2 2.7 3 2.5 10.9 -0.5 22.5 -1.3 5 -2.4 12 -2.4 15.8 l-0.1 6.7 -4.3 0 c-3.9 0 -4.4 -0.3 -5.3 -3 l-1.1 -2.9 -3.7 2.3 c-7.6 4.9 -16.7 5.9 -23.8 2.6z m21.8 -7.9 c4.4 -2.8 7.1 -6.7 8.9 -13.2 l0.9 -3 -5.2 0.6 c-20.3 2.4 -22.9 3.2 -24.7 8.1 -3.4 8.9 10 14 20.1 7.5z"/>
  <path d="M534.5 505.6 c-2.9 -1.5 -6.1 -4.1 -7.5 -6.3 -2.2 -3.2 -2.5 -4.7 -2.5 -12.2 0.1 -9.2 2 -15.1 7.1 -21.8 7.2 -9.4 25.6 -12.9 34.4 -6.4 3.5 2.5 7 7.9 7 10.7 0 1.8 -0.6 2.4 -2.2 2.4 -1.3 0 -3.3 0.3 -4.4 0.6 -1.8 0.5 -2.4 0 -3.3 -2.9 -1.5 -4.6 -4.9 -6.7 -10.6 -6.7 -8.2 0 -13.7 4.7 -16.9 14.3 -1.9 5.5 -2.1 14.8 -0.5 18 4.4 8.6 16.4 7.3 22.8 -2.6 2.2 -3.3 2.9 -3.7 6.8 -3.7 5.3 0 5.4 1.1 1.1 7.6 -4.7 6.9 -11.1 10.6 -19.5 11.1 -5.9 0.4 -7.5 0.1 -11.8 -2.1z"/>
  <path d="M614.6 506.6 c-5.9 -2.2 -8.8 -4.7 -11.4 -9.7 -2 -3.8 -2.3 -5.4 -1.9 -12 1.1 -17.9 13.3 -29.4 30.8 -29.2 17.9 0.3 25.9 14.1 19.4 33.5 -3.6 10.4 -14 17.8 -26.3 18.5 -4.3 0.2 -8.1 -0.2 -10.6 -1.1z m17.3 -7.5 c10 -5.1 15.5 -22 10.1 -30.9 -6.1 -9.9 -22.2 -6.8 -28.1 5.5 -2.8 5.8 -3.7 15.9 -1.8 20.4 2.6 6.5 12.1 8.9 19.8 5z"/>
  <path d="M728.1 505.8 c-5.6 -2.9 -8.4 -7.7 -7.8 -13.5 1.1 -10.1 10.2 -15.1 28.6 -15.4 10 -0.2 12.3 -0.9 13.2 -4.2 1.7 -6.5 -2.3 -9.8 -11.8 -9.8 -6 0 -10.4 2 -13.5 6.1 -1.9 2.7 -2.5 2.9 -6.2 2.3 -2.3 -0.3 -4.2 -0.7 -4.4 -0.8 -0.2 -0.2 0.3 -1.6 1.1 -3.2 3.9 -7.3 12.5 -11.6 23.6 -11.5 8.9 0 15 2.1 18.6 6.4 3.3 3.9 3.2 8.2 -0.2 21.1 -1.8 6.6 -2.7 12.6 -2.6 17 l0 6.8 -4.6 -0.3 c-3.9 -0.3 -4.6 -0.6 -4.9 -2.5 -0.4 -2.9 -0.9 -2.9 -7.2 0.4 -7.4 3.8 -15.9 4.3 -21.9 1.1z m20.2 -6.4 c5.2 -2.6 7.5 -5.4 9.7 -11.2 1.1 -3 1.9 -5.6 1.7 -5.8 -0.7 -0.7 -23.7 2.5 -25.6 3.6 -4.8 2.5 -5.6 9.7 -1.5 12.9 3.3 2.6 11.1 2.8 15.7 0.5z"/>
  <path d="M846.6 507 c-7.2 -2.2 -11.6 -9.8 -11.6 -19.9 0 -17.6 11.9 -31.4 27.1 -31.4 5.9 0 11.9 2.6 13.8 6.1 0.5 0.9 1.2 1.4 1.6 1 0.3 -0.3 1.8 -5.7 3.3 -11.9 1.5 -6.3 3 -11.9 3.5 -12.6 0.7 -1.2 7.1 -1.3 8.2 -0.1 0.6 0.5 -6.4 32.2 -13 59.3 l-2.2 9 -4.3 0.3 c-4.2 0.3 -4.2 0.3 -3.8 -2.7 l0.5 -3.1 -2.6 1.7 c-7.8 5.2 -13.4 6.4 -20.5 4.3z m15.2 -7.4 c7.2 -3.8 12.4 -13.3 12.5 -23 0.2 -10 -4.5 -14.4 -14 -13.3 -3.9 0.4 -5.4 1.2 -8.4 4.4 -4 4.4 -7.9 13.5 -7.9 18.8 0 5 2.6 10.8 5.8 12.8 3.3 2 8.4 2.2 12 0.3z"/>
  <path d="M907.5 506.5 c-9.2 -3.2 -14.7 -14.2 -12.5 -25.2 3.3 -17.5 18 -28.3 34.2 -25.3 11.2 2.2 17.1 9.8 16.6 21.2 l-0.3 6.3 -20.9 0.3 -20.9 0.2 0.7 4.6 c0.3 2.4 1.1 5.4 1.7 6.5 1.5 2.9 6.9 5.9 10.4 5.9 4.6 -0.1 10.9 -3.4 14.1 -7.4 2.5 -3.1 3.5 -3.6 7.2 -3.6 2.3 0 4.2 0.5 4.2 1 0 2.5 -3.3 7.1 -7.4 10.5 -7.5 6.1 -18.3 8.1 -27.1 5z m29.5 -32.9 c0 -4.5 -4 -9.2 -9.1 -10.7 -5 -1.6 -10.6 0 -15.5 4.3 -3 2.7 -6.4 7.5 -6.4 9.3 0 0.3 7 0.5 15.5 0.5 l15.5 0 0 -3.4z"/>
  <path d="M1141.5 506.8 c-4.8 -1.7 -9.4 -5.6 -11.6 -10 -1.7 -3.4 -2 -5.5 -1.7 -11.7 0.8 -17.3 12.4 -29.2 28.5 -29.3 15.1 -0.1 22.8 7.5 22.1 21.7 l-0.3 6 -20.1 0.3 c-19.3 0.2 -20.2 0.3 -20.7 2.3 -0.6 2.4 0.6 7.2 2.7 10.4 4.6 6.9 18.6 4.8 24.2 -3.7 1.6 -2.3 2.6 -2.8 6 -2.8 5.1 0 5.7 0.6 3.9 4 -2.2 4.2 -10.1 10.7 -15.2 12.4 -5.2 1.8 -13.3 2 -17.8 0.4z m28.5 -32.8 c0 -6.2 -5.7 -12 -11.7 -12 -6.8 0 -14.1 4.6 -17.4 11.1 l-1.9 3.9 15.5 0 15.5 0 0 -3z"/>
  <path d="M1199.5 506.6 c-2.2 -0.7 -5 -1.8 -6.3 -2.5 -3.2 -1.7 -6.2 -7 -6.2 -10.8 0 -2.9 0.4 -3.3 3.5 -3.9 4.1 -0.7 4.6 -0.4 6.1 3.9 0.6 1.8 2.6 4.3 4.5 5.5 2.9 2 4.4 2.3 10.1 2 7.6 -0.4 10.8 -2.4 10.8 -6.8 0 -3.4 -2.1 -5.3 -9.5 -8.5 -11.4 -4.9 -14.8 -6.9 -16.7 -10 -2.7 -4.3 -1.8 -9.8 2.3 -14.1 4.2 -4.3 8.7 -5.8 17.2 -5.7 11 0.2 19.4 5.6 20 12.8 0.2 2.8 0 3 -4 3.3 -4 0.3 -4.3 0.1 -5.7 -3.3 -3.2 -7.6 -16.7 -8.9 -21.1 -2.1 -2.6 3.9 -0.8 5.5 11.6 11.1 8.9 3.9 11.8 5.7 13.6 8.4 3.7 5.5 2.9 10.5 -2.5 16.4 -4.8 5.1 -18.4 7.2 -27.7 4.3z"/>
  <path d="M1248.3 507.2 c-4 -1.2 -6.3 -4 -6.3 -7.4 0 -1.8 1.8 -10.6 3.9 -19.5 2.1 -9 3.6 -16.5 3.3 -16.8 -0.3 -0.3 -1.8 -0.5 -3.4 -0.5 -2.6 0 -2.9 -0.3 -2.6 -2.7 0.3 -2.4 0.8 -2.9 4.3 -3.3 4 -0.5 4 -0.5 5.4 -6.7 1.3 -5.9 1.7 -6.3 6.3 -8.8 2.7 -1.5 5.1 -2.5 5.4 -2.3 0.2 0.3 -0.4 4.1 -1.5 8.4 -1 4.3 -1.7 8.2 -1.4 8.7 0.2 0.4 2.2 0.7 4.4 0.7 3.1 0 3.9 0.4 3.9 1.8 0 3 -1.4 4.1 -5.9 4.4 -4.4 0.3 -4.4 0.3 -5.7 5.3 -3.2 12.4 -6.5 28.8 -6 30.1 0.3 0.9 2 1.4 4.6 1.4 3.5 0 4 0.3 4 2.3 0 1.2 -0.4 2.8 -0.9 3.6 -1 1.5 -8.5 2.4 -11.8 1.3z"/>
  <path d="M1362.1 505.8 c-11.1 -5.9 -10.4 -20.1 1.2 -25.7 3.2 -1.6 7.6 -2.3 17.6 -3 7.4 -0.5 13.8 -1.4 14.3 -1.9 1.7 -1.7 1.3 -8.1 -0.5 -9.9 -2.2 -2.2 -13.5 -3 -17.8 -1.3 -1.6 0.7 -4.2 2.8 -5.7 4.6 -2.5 3 -3.1 3.2 -7 2.7 -2.3 -0.3 -4.2 -0.8 -4.2 -1.2 0 -1.7 4.2 -7.1 7.2 -9.4 4.7 -3.5 10.3 -5 18.3 -5 12.5 0.1 20.5 5.3 20.5 13.4 0 2.2 -1.2 8.6 -2.6 14.2 -1.6 5.9 -2.7 13.1 -2.8 17 l0 6.8 -4.6 -0.3 c-3.8 -0.3 -4.5 -0.6 -4.8 -2.5 -0.4 -2.9 -0.9 -2.9 -6.7 0.3 -6.9 3.9 -16.4 4.4 -22.4 1.2z m21.4 -7.1 c2.2 -1.2 5 -3.7 6.2 -5.6 2.1 -3.1 4.6 -10.1 3.9 -10.8 -0.6 -0.6 -23.7 2.7 -25.5 3.7 -4.8 2.5 -5.6 9.7 -1.5 12.9 3.7 2.9 11.6 2.8 16.9 -0.2z"/>
  <path d="M1426.5 506.2 c-8.2 -3.8 -12.2 -11.8 -11 -21.9 0.8 -7 2.8 -12.6 6.3 -17.4 5.8 -7.8 12.2 -11 22.2 -11.2 11 -0.2 18.4 4.6 19.7 12.9 0.4 2.6 0.2 3.4 -0.9 3.4 -0.9 0 -2.9 0.3 -4.6 0.6 -2.7 0.6 -3.1 0.3 -3.7 -2.5 -1 -4.7 -4.8 -7.1 -11 -7.1 -10.9 0 -17.8 9.3 -17.9 24.3 -0.1 7.7 0 7.9 3.3 10.9 3 2.7 3.9 3 8.3 2.6 5.2 -0.5 9.3 -3.5 12.6 -9 1.4 -2.3 2.3 -2.8 5.7 -2.8 5.2 0 5.8 0.6 3.9 4.1 -2.4 4.7 -7.5 9.9 -11.8 12.1 -5.8 3 -15.9 3.5 -21.1 1z"/>
  <path d="M1505.2 506.4 c-9.5 -3.5 -14 -11.6 -12.7 -22.9 1.8 -16.7 13.8 -27.8 30 -27.8 10.3 0 16.7 3.7 21 12.2 2.4 4.8 1.7 16.9 -1.3 22.8 -5.6 10.7 -14.1 16.4 -25.7 16.9 -4.6 0.3 -8.5 -0.2 -11.3 -1.2z m20.5 -9 c5.6 -4.4 9.6 -13.1 9.6 -20.5 0 -7 -1.9 -10.4 -7.7 -13.3 -10.7 -5.3 -24 5.3 -25.3 20.4 -1.1 11.8 3.6 17.4 13.9 16.7 4.6 -0.3 6.6 -1 9.5 -3.3z"/>
  <path d="M169 506.5 c0 -0.4 2.1 -9.7 4.6 -20.8 2.6 -11.1 5.1 -22.1 5.6 -24.4 1 -4.3 1 -4.3 5.3 -4.3 l4.4 0 -0.6 3.7 -0.6 3.6 3.4 -2.6 c5.2 -3.9 10.6 -5.9 16.5 -5.9 8.8 -0.1 14.4 4.5 14.4 12 0 3.8 -7.8 37.3 -8.9 38.5 -0.5 0.5 -2.6 0.7 -4.7 0.5 -4.6 -0.4 -4.6 0.4 -0.3 -17.8 3.8 -15.6 4.6 -22.4 2.9 -24.5 -1.8 -2.2 -10.2 -1.9 -14.8 0.4 -7.8 4 -10 8.1 -14.6 28.1 l-3.2 13.5 -4.7 0.3 c-2.6 0.2 -4.7 0 -4.7 -0.3z"/>
  <path d="M259 505.6 c0 -1.3 9.3 -42.4 10.6 -46.8 0.4 -1.3 1.6 -1.8 4.6 -1.8 l4.1 0 -0.7 4.3 -0.7 4.2 3.9 -3.8 c4.8 -4.7 10.2 -6.7 14.9 -5.7 1.9 0.5 3.7 1 3.9 1.3 0.3 0.2 -0.3 2.1 -1.2 4 -1.7 3.5 -1.8 3.6 -6.3 3 -3.7 -0.4 -5.2 0 -8.1 1.9 -6.1 4.2 -8.8 9.6 -12.8 25.5 l-3.7 14.8 -4.2 0.3 c-3.3 0.2 -4.3 0 -4.3 -1.2z"/>
  <path d="M386 506.1 c0 -0.5 1.4 -6.7 3 -13.7 4.1 -17.5 5.3 -22.6 9.1 -38.9 1.7 -7.7 3.6 -14.6 4.2 -15.3 0.6 -0.8 2.6 -1.2 5.1 -1 l4.1 0.3 9.2 18 c5.1 9.9 11.1 22.6 13.4 28.2 2.4 5.6 4.5 10.1 4.7 9.8 0.2 -0.2 1.9 -7.1 3.7 -15.2 7.1 -32 8.8 -38.8 9.7 -40 1.1 -1.4 6.6 -1.7 8.5 -0.5 0.9 0.6 0.5 3.7 -1.7 12.7 -4.7 19.8 -9.8 41.6 -11.5 49.3 l-1.7 7.2 -4.8 0 c-2.6 0 -5.2 -0.6 -5.7 -1.2 -1 -1.3 -23.1 -47.7 -25.4 -53.3 l-1.3 -3 -0.3 2.5 c-0.3 1.4 -3.1 14.1 -6.4 28.4 -3.2 14.2 -5.9 26 -5.9 26.2 0 0.2 -2.2 0.4 -5 0.4 -2.7 0 -5 -0.4 -5 -0.9z"/>
  <path d="M575.4 505.3 c0.3 -1 2.8 -11.8 5.5 -24.1 2.8 -12.3 5.3 -22.8 5.7 -23.3 0.6 -1 9.4 -1.3 9.4 -0.3 0 1.4 -11 47.6 -11.5 48.5 -0.4 0.5 -2.6 0.9 -5.1 0.9 -3.9 0 -4.5 -0.3 -4 -1.7z"/>
  <path d="M659.3 505.7 c0.3 -0.7 2.1 -8.5 4.1 -17.3 2 -8.7 4.4 -19.3 5.4 -23.4 l1.7 -7.5 4.4 -0.3 4.3 -0.3 -0.6 3.6 c-0.8 4 -1.1 4.1 5.9 -0.7 8.3 -5.6 19.6 -5.5 24.8 0.2 3.7 4.2 3.6 9.1 -0.8 27.7 -1.9 8.1 -3.7 15.8 -4 17.1 -0.5 1.9 -1.2 2.2 -5 2.2 -3.6 0 -4.5 -0.3 -4.5 -1.7 0 -1 1.8 -9.4 4 -18.7 2.2 -9.3 4 -17.7 4 -18.6 0 -5.6 -10.7 -6.9 -18.2 -2.1 -6 3.8 -8.8 9.7 -12.9 27.1 l-3.3 14 -4.9 0 c-3.6 0 -4.8 -0.3 -4.4 -1.3z"/>
  <path d="M778.5 504.8 c0.3 -1.3 3.7 -16 7.5 -32.8 3.9 -16.8 7.5 -31.5 8 -32.8 0.8 -1.8 1.6 -2.2 4.7 -1.9 2.5 0.1 3.9 0.8 4.1 1.8 0.3 1.6 -14.3 65.3 -15.3 67 -0.4 0.5 -2.6 0.9 -5.1 0.9 -4.1 0 -4.4 -0.2 -3.9 -2.2z"/>
  <path d="M985.5 503.8 c2.3 -11.3 14.7 -63.6 15.4 -64.8 0.9 -1.6 8.7 -2.4 9.6 -1 0.2 0.4 -1.8 10.3 -4.6 22.1 -2.7 11.8 -5.8 25.3 -6.9 30 -1 4.8 -2.4 10.5 -3 12.8 l-1.1 4.1 -5 0 -5.1 0 0.7 -3.2z"/>
  <path d="M1012.5 504.8 c0.3 -1.3 2.3 -9.7 4.4 -18.8 2.2 -9.1 4.5 -19.3 5.1 -22.7 l1.3 -6.3 4.4 0 4.5 0 -0.7 3.6 c-0.7 4 -0.8 4 5.8 -0.7 10.6 -7.7 25.5 -4.8 27.6 5.3 0.8 3.4 0.5 5 -5 28.6 l-3.1 13.2 -4.4 0 c-5.4 0 -5.4 -0.2 -2 -13.8 1.4 -5.3 3.2 -13.2 4.1 -17.6 1.4 -7.2 1.4 -8 -0.1 -10.3 -1.5 -2.3 -2.1 -2.5 -7.4 -2.1 -7.6 0.5 -13.1 4.1 -16.4 10.6 -1.3 2.6 -3.9 11.1 -5.7 19 l-3.3 14.2 -4.8 0 c-4.5 0 -4.8 -0.2 -4.3 -2.2z"/>
  <path d="M1085.1 501.8 c-0.5 -2.9 -2 -10.5 -3.1 -16.8 -1.2 -6.3 -2.8 -14.7 -3.6 -18.7 -1.9 -9.9 -2.1 -9.5 3.3 -9.1 l4.7 0.3 1.2 6.5 c0.6 3.6 2 12.1 2.9 19 1 6.9 2.2 12.9 2.6 13.4 0.4 0.4 1.5 -0.7 2.5 -2.5 0.9 -1.9 3.2 -5.6 4.9 -8.4 1.8 -2.7 6.5 -10.3 10.5 -16.7 l7.2 -11.8 5 0 c3.7 0 4.7 0.3 4.2 1.3 -0.9 1.6 -12.3 19.6 -22.8 35.9 l-8.1 12.8 -5.2 0 -5.2 0 -1 -5.2z"/>
  <path d="M1269 506.7 c0 -0.2 1.6 -7.3 3.5 -15.8 5.3 -22.8 7.5 -32.8 7.5 -33.4 0 -0.3 2.3 -0.5 5 -0.5 2.8 0 5 0.3 5 0.8 -0.1 0.4 -2.7 11.5 -5.8 24.7 l-5.7 24 -4.8 0.3 c-2.6 0.2 -4.7 0.1 -4.7 -0.1z"/>
  <path d="M1466.8 506.5 c-0.3 -0.3 1 -7 2.9 -14.8 1.9 -7.8 4.4 -18.7 5.6 -24.2 l2.2 -10 4.8 -0.3 c2.9 -0.2 4.7 0.1 4.7 0.8 0 0.9 -2.3 10.9 -9.6 42.3 l-1.6 6.7 -4.2 0 c-2.4 0 -4.5 -0.2 -4.8 -0.5z"/>
  <path d="M1551 505.3 c0 -1.4 9.3 -43 10.6 -47 0.2 -0.8 2.1 -1.3 4.8 -1.3 l4.5 0 -1 3.2 c-0.5 1.7 -0.7 3.4 -0.4 3.6 0.2 0.2 1.9 -0.7 3.7 -2.1 5.9 -4.4 9.9 -5.9 15.8 -6 6.8 0 11.3 2.3 13.5 7 1.8 3.8 1.5 6.6 -3.8 29.3 l-3.4 14.5 -4.6 0.3 c-3.4 0.2 -4.7 -0.1 -4.7 -1 0 -0.7 1.8 -8.9 4 -18.1 2.2 -9.3 4 -17.9 4 -19.2 0 -3.6 -2.6 -5.5 -7.6 -5.5 -6 0 -10.3 1.9 -14.2 6.4 -4.2 4.9 -5.3 7.6 -9.1 23.9 l-3.3 13.7 -4.4 0 c-3.4 0 -4.4 -0.4 -4.4 -1.7z"/>
  <path d="M1516 450.2 c0 -1 7.7 -11.4 9 -12.2 1.7 -1.1 11 -1.2 11 -0.2 0 0.6 -3.1 3.7 -6.9 7.1 -5.3 4.7 -7.6 6.1 -10 6.1 -1.7 0 -3.1 -0.4 -3.1 -0.8z"/>
  <path d="M589.7 443.8 c0.9 -5.2 1.9 -6.2 5.7 -6.4 4.4 -0.3 5 0.5 4.1 5.6 l-0.7 4 -4.9 0 -4.8 0 0.6 -3.2z"/>
  <path d="M1283 446.3 c0 -2.4 2.2 -8.2 3.3 -8.5 0.6 -0.3 2.6 -0.4 4.2 -0.4 2.7 0.1 3 0.4 2.9 3.4 -0.3 5.5 -0.9 6.2 -5.9 6.2 -2.5 0 -4.5 -0.3 -4.5 -0.7z"/>
  <path d="M1480.4 445.3 c0.3 -1 0.8 -3 1.1 -4.5 0.6 -2.2 1.4 -2.8 4.7 -3.3 2.2 -0.4 4.4 -0.3 4.9 0.2 0.4 0.4 0.3 2.7 -0.3 5.1 l-1 4.2 -5 0 c-4.2 0 -4.9 -0.2 -4.4 -1.7z"/>
  <path d="M153.5 389.9 c-11.9 -1.4 -22.5 -4.6 -33.5 -10.1 -9 -4.5 -11.8 -6.6 -19.5 -14.3 -7.6 -7.5 -9.9 -10.5 -13.8 -18.5 -2.6 -5.2 -5.4 -12.2 -6.2 -15.5 -10.1 -40.2 4.3 -90 34.1 -117.4 26.5 -24.4 65.7 -36.8 104.8 -33 37.9 3.6 65.2 24.3 73.1 55.4 1.7 6.7 1.9 11.5 0.6 11.5 -0.5 0 -12.5 1.1 -26.7 2.5 -14.2 1.4 -26.5 2.5 -27.4 2.5 -1.3 0 -2.1 -1.7 -3.3 -6.4 -4.1 -16.8 -15.8 -25.6 -34.1 -25.6 -14.2 0 -26.1 4.9 -37.1 15.1 -15.6 14.7 -26.9 46 -26.7 74.4 0 8.7 0.5 12.2 2.2 16.6 7.9 21.3 34.4 27.4 56.6 13.1 7.5 -4.8 14.3 -12.5 19.8 -22.2 2.4 -4.1 4.7 -7.4 5.2 -7.4 0.5 0.1 12.9 1.9 27.6 4 14.8 2.1 27.4 4.1 28 4.6 1.8 1.1 -6.9 17.9 -14.3 27.8 -24.2 32.1 -65.2 48.2 -109.4 42.9z"/>
  <path d="M405 390.4 c-1.4 -0.2 -5.9 -0.9 -10 -1.5 -37.2 -5.5 -66.9 -31 -76.1 -65.4 -3 -11.4 -3.7 -32.8 -1.5 -46.1 4.2 -24.2 14.3 -43.9 32 -62.1 21.3 -22.1 49 -33.4 84.6 -34.7 54.7 -1.9 89.9 25.3 94.9 73.5 1.7 16 -1.1 47.7 -4.3 48 -0.6 0.1 -34.6 0.2 -75.6 0.3 l-74.5 0.1 -0.3 4.5 c-1.8 24 18.7 45 43.7 45 16.6 0 34.5 -9.5 43.1 -23 1.8 -2.7 3.5 -5 3.9 -5 2.5 0.1 52.4 8 52.8 8.4 1.3 1.2 -9.7 16.6 -17.9 25.2 -17.6 18.3 -39.8 29 -67.8 32.4 -8 1 -21.6 1.1 -27 0.4z m69.7 -130.1 c-0.8 -10.7 -1.9 -15 -6 -22.7 -7.4 -13.9 -26 -21.2 -44.4 -17.3 -11 2.4 -17.8 6.1 -26.3 14.7 -7.7 7.6 -12.5 15.6 -15.6 26 -2.7 8.8 -7.4 8 45.7 8 l47.2 0 -0.6 -8.7z"/>
  <path d="M1001.5 389.9 c-14.6 -2.1 -29 -8.9 -39.4 -18.5 -11.5 -10.6 -18 -22.6 -21.9 -40.2 -2.4 -10.7 -2.3 -39.4 0.1 -50.7 7.2 -33.5 24.9 -63.4 47.7 -80.7 8 -6.1 22 -13 32 -15.8 22.3 -6.1 51.1 -4 68.8 4.9 8.2 4.1 17.6 11.5 21.9 17.1 2.1 2.7 4.2 4.8 4.7 4.7 0.9 -0.3 2.6 -6.7 7 -26.2 1.5 -6.6 4.8 -20.5 7.2 -31 2.4 -10.4 5.6 -24.2 7.1 -30.5 1.4 -6.3 2.7 -12.1 2.9 -12.8 0.3 -0.9 7.2 -1.2 30.4 -1.2 16.5 0 30 0.4 30 0.8 0 0.9 -12 53.8 -14.5 63.7 -0.8 3.3 -3.7 15.9 -6.5 28 -2.8 12.1 -5.7 24.7 -6.5 28 -3.2 13.4 -15.6 67 -18.9 81.5 -2 8.5 -5.9 25.2 -8.6 37 -2.8 11.8 -5.9 25.1 -6.8 29.5 l-1.7 8 -28.8 0.3 c-15.8 0.1 -28.7 -0.1 -28.7 -0.5 0 -0.5 1.1 -5 2.4 -10.1 1.6 -6.2 2 -9.2 1.2 -8.9 -0.6 0.3 -4.7 3.1 -9.1 6.2 -20.6 14.9 -46.4 21.1 -72 17.4z m47.7 -41 c22.4 -4.7 39.4 -24.5 47.8 -55.4 2.7 -9.9 3.7 -28.6 2.1 -36.6 -2.9 -13.7 -12.5 -26.3 -24.7 -32.4 -11.2 -5.5 -28.7 -4.5 -40.4 2.3 -12 7 -24 23.1 -30.5 41 -5.6 15.5 -7.8 34.7 -5.6 47.6 4.3 24.4 26.2 38.8 51.3 33.5z"/>
  <path d="M1285.6 389.9 c-29.2 -3.3 -54.5 -17.7 -69.4 -39.2 -10.7 -15.5 -14.2 -27.2 -14.9 -49.7 -0.5 -17.6 0.4 -25.7 4.8 -40.1 5.3 -17.6 20 -39.8 34.2 -51.9 19.9 -16.9 41.8 -25.5 72.1 -28.1 48.8 -4.1 85.2 16.1 97.4 54.1 3.5 11.1 4.5 20.7 3.9 38.3 -0.7 19.2 -2.2 28.6 -4.6 28.8 -0.9 0.1 -34.2 0.2 -74.1 0.4 -39.9 0.1 -73.3 0.3 -74.4 0.4 -1.7 0.1 -1.8 0.8 -1.4 9.1 0.5 7.6 1.1 10.1 3.9 15.8 9.1 18.7 28.8 27.5 51 22.8 13.3 -2.8 25.2 -11.5 33.9 -24.4 l1.5 -2.3 26.4 4.1 c14.6 2.2 26.6 4.2 26.8 4.3 0.1 0.2 -1.3 3 -3.3 6.3 -22.6 37.6 -65.5 56.9 -113.8 51.3z m73.2 -131.1 c-0.7 -12.7 -3.1 -19.7 -9.5 -26.8 -5.9 -6.6 -11.4 -9.7 -20.4 -11.6 -22.5 -4.8 -45.2 6.4 -56.3 27.6 -2.7 5.1 -7.6 18.5 -7.6 20.6 0 0.2 21.2 0.4 47.1 0.4 l47.2 0 -0.5 -10.2z"/>
  <path d="M1494.9 390 c-24.8 -3.1 -38.9 -12.9 -43.5 -30.2 -2.5 -9.4 -1.5 -18.7 5 -47.5 1.5 -6.2 3.7 -16.1 5 -22 1.4 -6 4.9 -21.4 8 -34.3 3 -13 5.7 -25.1 5.8 -27 l0.3 -3.5 -13.7 -0.3 c-13.5 -0.3 -13.8 -0.3 -13.7 -2.5 0 -1.2 1.9 -10.1 4.2 -19.7 l4.2 -17.5 14.8 -0.3 c8.1 -0.1 14.7 -0.6 14.8 -1 0 -0.4 1.7 -7.6 3.7 -16.1 l3.7 -15.3 33.9 -18.4 c18.7 -10.1 34.2 -18.2 34.4 -18 0.4 0.5 -2.1 12.4 -9.3 42.5 -3 12.9 -5.5 24 -5.5 24.8 0 1 3.6 1.3 18 1.3 9.9 0 18 0.3 18 0.8 0 0.4 -1.8 8.4 -4 17.7 -2.2 9.4 -4.2 18 -4.5 19.3 -0.5 2.2 -0.7 2.2 -18.4 2.2 -13.1 0 -18.1 0.3 -18.8 1.3 -0.6 0.6 -2.7 8.6 -4.7 17.7 -2.1 9.1 -6.8 29.8 -10.6 46 -11.6 50.1 -11.5 49.2 -6.4 54.3 3.8 3.9 10.6 5 24.4 4.2 6.9 -0.4 12 -0.3 12 0.2 0 1.6 -8.7 38.4 -9.2 38.9 -2.2 2.1 -36.4 3.9 -47.9 2.4z"/>
  <path d="M548.4 384.3 c0.5 -1.6 10.5 -44.1 15.6 -66.3 5.2 -22.5 6.3 -27.3 9 -38.5 1.5 -6.6 4.5 -19.2 6.5 -28 6.3 -27.6 14.6 -62.9 15.1 -64.7 0.5 -1.7 2.8 -1.8 29 -1.8 l28.4 0 -0.4 2.3 c-0.3 1.2 -1.5 6.6 -2.7 12 -1.1 5.4 -1.9 10 -1.7 10.2 0.2 0.3 4.7 -2.5 9.8 -6.1 23.7 -16.4 47.6 -23.9 72.7 -22.8 31.9 1.4 52.4 18.8 54.9 46.7 0.9 11 0 15.9 -18.2 94.7 -1.4 5.8 -4.2 18.2 -6.4 27.5 -2.1 9.4 -4.9 21.4 -6.2 26.8 l-2.2 9.7 -30.3 0 c-23.7 0 -30.1 -0.3 -29.8 -1.2 0.2 -0.7 2 -8.5 4 -17.3 5.3 -23.2 9.3 -40.5 12.1 -52.5 4.2 -17.3 10.7 -46.1 14 -61.4 2.3 -10.5 2 -17.8 -0.8 -22.8 -5.2 -9.5 -18 -13.7 -31.5 -10.5 -13.9 3.4 -30.1 13.7 -39.1 24.8 -6.7 8.3 -12.7 21.6 -17.1 37.9 -3.9 14.8 -5.1 19.8 -14.1 58.5 -2.8 12.1 -6.3 27.1 -7.7 33.3 l-2.7 11.2 -30.4 0 c-28.4 0 -30.3 -0.1 -29.8 -1.7z"/>
  <path d="M811 384.2 c0 -1 0.6 -4.2 1.4 -7.2 0.8 -3 2.8 -11.8 4.6 -19.5 1.7 -7.7 6.2 -27.3 10 -43.5 7.4 -31.5 13.5 -57.7 23.1 -99.5 3.3 -14.3 6.2 -26.8 6.5 -27.7 0.5 -1.7 2.8 -1.8 30.6 -1.8 l30 0 -0.7 3.8 c-0.3 2 -2.8 12.9 -5.5 24.2 -2.7 11.3 -6 25.5 -7.4 31.5 -1.4 6.1 -5.5 23.6 -9.1 39 -7.5 32.3 -8.2 35.3 -17 73.1 -3.6 15.4 -6.5 28.4 -6.5 28.7 0 0.4 -13.5 0.7 -30 0.7 -28.2 0 -30 -0.1 -30 -1.8z"/>
  <path d="M864.4 153.8 c0.4 -2.3 1.7 -8.7 3 -14.2 1.3 -5.6 3.4 -14.7 4.7 -20.3 l2.3 -10.3 30.4 0 c28.4 0 30.3 0.1 29.8 1.8 -0.3 0.9 -1.6 6.7 -3 12.7 -1.4 6.1 -3.7 16.3 -5.2 22.8 l-2.8 11.7 -29.9 0 -30 0 0.7 -4.2z"/>
  <path d="M1592.8 94 c-18.7 -3.4 -34 -13.5 -40.5 -26.8 -2.2 -4.6 -2.8 -7 -2.8 -13.2 0 -6.5 0.4 -8.4 3.3 -14.2 5.9 -12 19.1 -21.3 35.9 -25.3 10.7 -2.6 28.1 -1.7 38.6 1.9 19.9 6.8 31.5 19.5 32.5 35.6 0.6 10.9 -2 17.2 -10.7 25.9 -7.1 7.2 -15.1 11.7 -25.6 14.6 -7.1 1.9 -24 2.8 -30.7 1.5z m29.4 -5.4 c13.2 -4.1 23.4 -11.9 28.4 -21.6 4 -7.7 4.1 -18 0.3 -26.1 -7 -14.9 -24.6 -24.3 -45.9 -24.3 -27.9 -0.1 -49 15.7 -49 36.5 0 9.2 2.3 15 8.6 21.8 7.3 8 18.5 13.5 30.9 15.5 5.3 0.8 21.8 -0.3 26.7 -1.8z"/>
  <path d="M1585.5 73.8 c0.2 -0.7 2.7 -9.3 5.4 -19.1 2.8 -9.8 5.3 -18.2 5.6 -18.7 0.8 -1.3 19.7 -1.3 23.2 0.1 8 3 9.7 9.6 3.8 14.8 -2 1.7 -4.7 3.4 -6 3.7 -2.8 0.7 -3.3 2.2 -1.1 3 1.9 0.7 3.3 4.8 4 11.7 l0.6 5.7 -3.4 0 c-3.4 0 -3.4 0 -4.1 -5.7 -0.4 -3.1 -1.1 -6.7 -1.5 -7.9 -1.7 -4.5 -15.1 -6.1 -15.8 -1.9 -0.2 1.1 -1.2 5 -2.3 8.8 -1.9 6.6 -2 6.7 -5.4 6.7 -2.3 0 -3.3 -0.4 -3 -1.2z m25.9 -20.9 c4.5 -1.3 8.6 -5 8.6 -7.9 0 -3.1 -3.4 -5.8 -8.4 -6.5 -7.7 -1.2 -9.2 -0.3 -11.1 6.3 -0.9 3.1 -1.8 6.5 -2.1 7.5 -0.5 1.4 0.2 1.7 4.3 1.7 2.6 0 6.5 -0.5 8.7 -1.1z"/>
 </g>
</svg>